<?xml version="1.0" encoding="utf-8"?>
<!-- Generator: Adobe Illustrator 18.0.0, SVG Export Plug-In . SVG Version: 6.00 Build 0)  -->
<!DOCTYPE svg PUBLIC "-//W3C//DTD SVG 1.1//EN" "http://www.w3.org/Graphics/SVG/1.1/DTD/svg11.dtd">
<svg version="1.1" id="Layer_1" xmlns="http://www.w3.org/2000/svg" xmlns:xlink="http://www.w3.org/1999/xlink" x="0px" y="0px"
	 viewBox="0 0 115.5 54.2" enable-background="new 0 0 115.5 54.2" xml:space="preserve">
<rect x="0" y="0" fill="#FFFFFF" width="115.6" height="54.1"/>
<g>
	<g>
		<path fill="#00448A" d="M64,8.6c0,0.7,0.6,0.9,1.1,0.9c0.4,0,1-0.2,1-0.7c0-0.5-0.6-0.6-1.7-0.8c-0.9-0.2-1.7-0.5-1.7-1.5
			c0-1.4,1.2-1.7,2.4-1.7c1.2,0,2.3,0.4,2.4,1.7h-1.4c0-0.6-0.5-0.7-1-0.7c-0.3,0-0.8,0.1-0.8,0.5c0,0.5,0.8,0.6,1.7,0.8
			c0.9,0.2,1.7,0.5,1.7,1.5c0,1.4-1.2,1.9-2.5,1.9c-1.3,0-2.5-0.5-2.6-1.9H64z"/>
	</g>
	<g>
		<path fill="#00448A" d="M72.5,7.8C72.2,8,71.7,8,71.2,8.1c-0.5,0.1-0.9,0.3-0.9,0.8c0,0.6,0.4,0.7,0.9,0.7c1.2,0,1.2-0.9,1.2-1.3
			V7.8z M69,6.6c0.1-1.4,1.3-1.8,2.6-1.8c1.1,0,2.4,0.2,2.4,1.5v2.8c0,0.5,0.1,1,0.2,1.2h-1.5c-0.1-0.2-0.1-0.3-0.1-0.5
			c-0.5,0.5-1.2,0.7-1.8,0.7c-1,0-1.9-0.5-1.9-1.6c0-1.2,0.9-1.5,1.9-1.7c0.9-0.1,1.8-0.1,1.8-0.7c0-0.6-0.4-0.7-1-0.7
			c-0.6,0-0.9,0.2-1,0.8H69z"/>
	</g>
	<g>
		<path fill="#00448A" d="M75.6,5h1.4v0.8h0c0.4-0.6,1-0.9,1.7-0.9c1.6,0,2,0.9,2,2.2v3.3h-1.5V7.3c0-0.9-0.3-1.3-1-1.3
			c-0.8,0-1.2,0.5-1.2,1.6v2.9h-1.5V5z"/>
	</g>
	<g>
		<path fill="#00448A" d="M84.3,5h1.1v1h-1.1v2.7c0,0.5,0.1,0.6,0.6,0.6c0.2,0,0.3,0,0.5,0v1.2c-0.3,0-0.6,0.1-0.9,0.1
			c-0.9,0-1.7-0.2-1.7-1.3V6h-0.9V5h0.9V3.3h1.5V5z"/>
	</g>
	<g>
		<path fill="#00448A" d="M89.3,4.3h-1l1-1.5H91L89.3,4.3z M90.3,7.1C90.2,6.4,89.8,6,89.1,6c-0.9,0-1.2,0.7-1.2,1.2H90.3z
			 M87.9,8.1c0,0.9,0.5,1.4,1.3,1.4c0.6,0,1.1-0.4,1.2-0.7h1.3c-0.4,1.3-1.3,1.8-2.5,1.8c-1.7,0-2.8-1.2-2.8-2.9
			c0-1.6,1.1-2.9,2.8-2.9c1.9,0,2.7,1.6,2.6,3.2H87.9z"/>
	</g>
	<g>
		<path fill="#00448A" d="M63.2,19.4h-0.9v-1h0.9v-0.4c0-1,0.6-1.7,1.8-1.7c0.3,0,0.5,0,0.8,0v1.1c-0.2,0-0.4,0-0.5,0
			c-0.4,0-0.6,0.2-0.6,0.6v0.3h1v1h-1v4.4h-1.5V19.4z"/>
	</g>
	<g>
		<path fill="#00448A" d="M70.3,21.1c-0.3,0.2-0.8,0.2-1.2,0.3c-0.5,0.1-0.9,0.3-0.9,0.8c0,0.6,0.4,0.7,0.9,0.7
			c1.2,0,1.2-0.9,1.2-1.3V21.1z M66.9,20c0.1-1.4,1.3-1.8,2.6-1.8c1.1,0,2.4,0.2,2.4,1.5v2.8c0,0.5,0,1,0.2,1.2h-1.5
			c-0.1-0.2-0.1-0.3-0.1-0.5c-0.5,0.5-1.2,0.7-1.8,0.7c-1,0-1.9-0.5-1.9-1.6c0-1.2,0.9-1.5,1.9-1.7c0.9-0.1,1.8-0.1,1.8-0.7
			c0-0.6-0.4-0.7-1-0.7c-0.6,0-0.9,0.2-1,0.8H66.9z"/>
	</g>
	<g>
		<path fill="#00448A" d="M73.5,18.4h1.4v0.7h0c0.4-0.6,1-0.9,1.7-0.9c0.7,0,1.3,0.3,1.6,0.9c0.3-0.5,0.9-0.9,1.6-0.9
			c1.2,0,2,0.5,2,1.9v3.6h-1.5v-3.1c0-0.7-0.1-1.3-0.9-1.3c-0.8,0-1,0.7-1,1.4v3h-1.5v-3.1c0-0.6,0-1.4-0.9-1.4c-0.3,0-1,0.2-1,1.3
			v3.2h-1.5V18.4z"/>
	</g>
	<g>
		<path fill="#00448A" d="M83.6,18.4h1.5v5.4h-1.5V18.4z M85.1,17.5h-1.5v-1.2h1.5V17.5z"/>
	</g>
	<g>
		<rect x="86.8" y="16.3" fill="#00448A" width="1.5" height="7.5"/>
	</g>
	<g>
		<rect x="90.1" y="16.3" fill="#00448A" width="1.5" height="7.5"/>
	</g>
	<g>
		<path fill="#00448A" d="M96.9,20.5c-0.1-0.8-0.5-1.2-1.2-1.2c-0.9,0-1.2,0.7-1.2,1.2H96.9z M94.5,21.4c0,0.9,0.5,1.4,1.3,1.4
			c0.6,0,1.1-0.4,1.2-0.7h1.3c-0.4,1.3-1.3,1.8-2.5,1.8c-1.7,0-2.8-1.2-2.8-2.9c0-1.6,1.1-2.9,2.8-2.9c1.9,0,2.7,1.6,2.6,3.2H94.5z"
			/>
	</g>
	<g>
		<path fill="#00448A" d="M62.9,31.7h1.4v1h0c0.3-0.7,1-1.2,1.7-1.2c0.1,0,0.2,0,0.3,0.1V33C66.3,33,66,33,65.9,33
			c-1.1,0-1.5,0.8-1.5,1.7v2.5h-1.5V31.7z"/>
	</g>
	<g>
		<path fill="#00448A" d="M71,33.9c-0.1-0.8-0.5-1.2-1.2-1.2c-0.9,0-1.2,0.7-1.2,1.2H71z M68.5,34.8c0,0.9,0.5,1.4,1.3,1.4
			c0.6,0,1.1-0.4,1.2-0.7h1.3c-0.4,1.3-1.3,1.8-2.5,1.8c-1.7,0-2.8-1.2-2.8-2.9c0-1.6,1.1-2.9,2.8-2.9c1.9,0,2.7,1.6,2.6,3.2H68.5z"
			/>
	</g>
	<g>
		<path fill="#00448A" d="M75.8,31.7h1.1v1h-1.1v2.7c0,0.5,0.1,0.6,0.6,0.6c0.2,0,0.3,0,0.5,0v1.2c-0.3,0-0.6,0.1-0.9,0.1
			c-0.9,0-1.7-0.2-1.7-1.3v-3.2h-0.9v-1h0.9v-1.6h1.5V31.7z"/>
	</g>
	<g>
		<path fill="#00448A" d="M78.1,31.7h1.4v1h0c0.3-0.7,1-1.2,1.7-1.2c0.1,0,0.2,0,0.3,0.1V33c-0.1,0-0.4-0.1-0.5-0.1
			c-1.1,0-1.5,0.8-1.5,1.7v2.5h-1.5V31.7z"/>
	</g>
	<g>
		<path fill="#00448A" d="M86.1,34.5c-0.3,0.2-0.8,0.2-1.2,0.3c-0.5,0.1-0.9,0.3-0.9,0.8c0,0.6,0.4,0.7,0.9,0.7
			c1.2,0,1.2-0.9,1.2-1.3V34.5z M82.7,33.4c0.1-1.4,1.3-1.8,2.6-1.8c1.1,0,2.4,0.2,2.4,1.5V36c0,0.5,0.1,1,0.2,1.2h-1.5
			c-0.1-0.2-0.1-0.3-0.1-0.5c-0.5,0.5-1.2,0.7-1.8,0.7c-1,0-1.9-0.5-1.9-1.6c0-1.2,0.9-1.5,1.9-1.7c0.9-0.1,1.8-0.1,1.8-0.7
			c0-0.6-0.4-0.7-1-0.7c-0.6,0-0.9,0.2-1,0.8H82.7z"/>
	</g>
	<g>
		<path fill="#00448A" d="M89.4,31.7h1.5v5.4h-1.5V31.7z M90.8,30.9h-1.5v-1.2h1.5V30.9z"/>
	</g>
	<g>
		<path fill="#00448A" d="M94.5,31.7h1.1v1h-1.1v2.7c0,0.5,0.1,0.6,0.6,0.6c0.2,0,0.3,0,0.5,0v1.2c-0.3,0-0.6,0.1-0.9,0.1
			c-0.9,0-1.7-0.2-1.7-1.3v-3.2h-0.9v-1H93v-1.6h1.5V31.7z"/>
	</g>
	<g>
		<path fill="#00448A" d="M100.5,33.9c-0.1-0.8-0.5-1.2-1.2-1.2c-0.9,0-1.2,0.7-1.2,1.2H100.5z M98,34.8c0,0.9,0.5,1.4,1.3,1.4
			c0.6,0,1.1-0.4,1.2-0.7h1.3c-0.4,1.3-1.3,1.8-2.5,1.8c-1.7,0-2.8-1.2-2.8-2.9c0-1.6,1.1-2.9,2.8-2.9c1.9,0,2.7,1.6,2.6,3.2H98z"/>
	</g>
	<g>
		<path fill="#00448A" d="M64,48.8c0,0.7,0.6,0.9,1.1,0.9c0.4,0,1-0.2,1-0.7c0-0.5-0.6-0.6-1.7-0.8c-0.9-0.2-1.7-0.5-1.7-1.5
			c0-1.4,1.2-1.7,2.4-1.7c1.2,0,2.3,0.4,2.4,1.7h-1.4c0-0.6-0.5-0.7-1-0.7c-0.3,0-0.8,0.1-0.8,0.5c0,0.5,0.8,0.6,1.7,0.8
			c0.9,0.2,1.7,0.5,1.7,1.5c0,1.4-1.2,1.9-2.5,1.9c-1.3,0-2.5-0.5-2.6-1.9H64z"/>
	</g>
	<g>
		<path fill="#00448A" d="M72.7,47.3c-0.1-0.8-0.5-1.2-1.2-1.2c-0.9,0-1.2,0.7-1.2,1.2H72.7z M70.3,48.2c0,0.9,0.5,1.4,1.3,1.4
			c0.6,0,1.1-0.4,1.2-0.7h1.3c-0.4,1.3-1.3,1.8-2.5,1.8c-1.7,0-2.8-1.2-2.8-2.9c0-1.6,1.1-2.9,2.8-2.9c1.9,0,2.8,1.6,2.6,3.2H70.3z"
			/>
	</g>
	<g>
		<path fill="#00448A" d="M75.6,45.1h1.4v1h0c0.3-0.7,1-1.2,1.7-1.2c0.1,0,0.2,0,0.3,0.1v1.4c-0.1,0-0.4-0.1-0.5-0.1
			c-1.1,0-1.5,0.8-1.5,1.7v2.5h-1.5V45.1z"/>
	</g>
	<g>
		<polygon fill="#00448A" points="83.3,50.6 81.6,50.6 79.7,45.1 81.3,45.1 82.5,48.8 82.5,48.8 83.6,45.1 85.1,45.1 		"/>
	</g>
	<g>
		<path fill="#00448A" d="M86.3,45.1h1.5v5.4h-1.5V45.1z M87.8,44.3h-1.5V43h1.5V44.3z"/>
	</g>
	<g>
		<path fill="#00448A" d="M93.2,47c-0.1-0.6-0.5-0.9-1.1-0.9c-1,0-1.3,1-1.3,1.8c0,0.8,0.3,1.7,1.2,1.7c0.7,0,1.1-0.4,1.2-1.1h1.4
			c-0.2,1.4-1.2,2.2-2.6,2.2c-1.6,0-2.8-1.2-2.8-2.8c0-1.7,1-2.9,2.8-2.9c1.3,0,2.5,0.7,2.6,2.1H93.2z"/>
	</g>
	<g>
		<path fill="#00448A" d="M99.7,47.3c-0.1-0.8-0.5-1.2-1.2-1.2c-0.9,0-1.2,0.7-1.2,1.2H99.7z M97.3,48.2c0,0.9,0.5,1.4,1.3,1.4
			c0.6,0,1.1-0.4,1.2-0.7h1.3c-0.4,1.3-1.3,1.8-2.6,1.8c-1.7,0-2.8-1.2-2.8-2.9c0-1.6,1.1-2.9,2.8-2.9c1.9,0,2.7,1.6,2.6,3.2H97.3z"
			/>
	</g>
	<g>
		<path fill="#00448A" d="M103.8,48.8c0,0.7,0.6,0.9,1.1,0.9c0.4,0,1-0.2,1-0.7c0-0.5-0.6-0.6-1.7-0.8c-0.9-0.2-1.7-0.5-1.7-1.5
			c0-1.4,1.2-1.7,2.4-1.7c1.2,0,2.3,0.4,2.4,1.7h-1.4c0-0.6-0.5-0.7-1-0.7c-0.3,0-0.8,0.1-0.8,0.5c0,0.5,0.8,0.6,1.7,0.8
			c0.9,0.2,1.7,0.5,1.7,1.5c0,1.4-1.2,1.9-2.5,1.9c-1.3,0-2.5-0.5-2.6-1.9H103.8z"/>
	</g>
	<g>
		<rect x="61.4" y="0" fill="#F9B200" width="54.2" height="0.6"/>
	</g>
	<g>
		<rect x="61.4" y="13.4" fill="#F9B200" width="54.2" height="0.6"/>
	</g>
	<g>
		<rect x="61.4" y="26.8" fill="#F9B200" width="54.2" height="0.6"/>
	</g>
	<g>
		<rect x="61.4" y="40.1" fill="#F9B200" width="54.2" height="0.6"/>
	</g>
	<g>
		<rect x="61.4" y="53.5" fill="#F9B200" width="54.2" height="0.6"/>
	</g>
	<g>
		<rect x="0" y="0" fill="#00448A" width="54.2" height="54.2"/>
		<path fill="#FFFFFF" d="M45.1,40.9v4.3l-11.3,0c-1.2,0-2.3-1-2.3-2.3c0-1.2,1-2.2,2.3-2.2l9.7,0c0.6,0,1.1-0.1,1.6-0.2L45.1,40.9z
			 M49.6,45.2V34.5c0-3.4-2.7-6.2-6.1-6.2H29.4l0-11.3c0-4.4,3.4-7.9,7.8-7.9c4.4,0,8,3.6,8,7.9v11.3h4.5l0-11.2
			c0-6.9-5.6-12.5-12.4-12.5c-4.4,0-7.7,1.8-10.2,5.3c-2.2-3.2-6-5.3-10.1-5.3c-3,0-5.8,1.1-8,2.9l0-2.8l-4.5,0l0,23.7H9l0-11.4
			c0.1-4.4,3.5-7.7,7.9-7.7c4.4,0,7.9,3.5,7.9,7.9l0,11.3H10.7c-3.4,0-6.2,2.8-6.2,6.2c0,3.4,2.8,6.2,6.2,6.2l9.7,0
			c1.2,0,2.2,1,2.2,2.3s-1,2.2-2.2,2.2H4.5v4.5h16.2c3.8,0,6.4-3.1,6.4-6.8c0-3.7-3-6.7-6.7-6.7l-9.6,0c-0.9,0-1.8-0.8-1.8-1.7
			c0-0.9,0.8-1.7,1.8-1.7h32.7c0.9,0,1.7,0.8,1.7,1.7c0,0.9-0.8,1.7-1.7,1.7l-6.8,0h-2.1h-0.7c-3.7,0-6.7,3-6.7,6.7
			c0,3.7,3,6.8,6.7,6.8H54C49.5,49.7,49.6,45.2,49.6,45.2"/>
	</g>
</g>
</svg>
