<?xml version="1.0" encoding="utf-8"?>
<!-- Generator: Adobe Illustrator 18.0.0, SVG Export Plug-In . SVG Version: 6.00 Build 0)  -->
<!DOCTYPE svg PUBLIC "-//W3C//DTD SVG 1.1//EN" "http://www.w3.org/Graphics/SVG/1.1/DTD/svg11.dtd">
<svg version="1.1" id="Layer_1" xmlns="http://www.w3.org/2000/svg" xmlns:xlink="http://www.w3.org/1999/xlink" x="0px" y="0px"
	 viewBox="36 354.1 512.1 182.9" style="enable-background:new 36 354.1 512.1 182.9;" xml:space="preserve">
<style type="text/css">
	.st0{fill:#069F9E;}
	.st1{fill:#FFFFFF;}
	.st2{fill:#0778C0;}
</style>
<g>
	<g>
		<path class="st0" d="M285.7,536c-0.6,0-1-0.2-1.2-0.5c-0.5-0.5-0.5-1.2-0.4-1.6c0-0.1,0-0.2,0-0.2c-0.4-6.5-0.8-13.5-1.6-20.3
			c-1.8-15.7-4.3-27.5-8.2-38.3c-4.2-11.5-9.7-20.9-16.9-29.1c-6.5-7.3-14.7-13.6-24.1-18.5c-9.3-4.8-19.9-8.4-32.4-11
			c-9.4-2-19.5-3.3-30.9-3.9c-5.7-0.3-11.5-0.5-17.4-0.5c-5,0-10.1,0.1-15.3,0.3c-8.2,0.4-15.7,0.8-22.9,1.5
			c-9.7,0.9-19.8,2.1-31,3.6c-8,1.1-16.8,2.5-27.6,4.4c-3.7,0.6-7.3,1.3-10.9,2c-1.9,0.4-3.8,0.7-5.6,1c-0.4,0.1-0.7,0.1-0.9,0.1
			c-0.6,0-0.9-0.3-1.1-0.5c-0.4-0.6-0.2-1.3-0.1-1.8c0.4-1.6,0.9-3.1,1.3-4.7c0.6-2.2,1.2-4.3,1.8-6.4c0.4-1.6,1.7-1.8,2.4-1.9
			l3.5-0.6c4.8-0.9,9.5-1.8,14.3-2.6c11.2-2,22.4-3.7,33.5-5.1c17.1-2.2,32.2-3.5,46.2-4.1c4.3-0.2,7.5-0.2,10.6-0.2h0.4
			c1.7,0,3.5,0,5.2,0c8.6,0,17.2,0.4,25.3,1.2c13.2,1.3,24.7,3.5,35.2,6.6c10.6,3.3,19.6,7.5,27.7,12.9
			c12.1,8.1,21.6,19.2,28.2,32.8c4.3,8.8,7.3,18.7,9.6,30.3c3,14.9,4,29.8,4.5,42.3c0.1,3.2,0.3,6.5,0.4,10.1c0,0.1,0,0.1,0,0.2
			c0.1,0.4,0.1,1.1-0.3,1.7C286.7,535.7,286.4,536,285.7,536L285.7,536z"/>
		<path class="st1" d="M156.4,398.3c8.4,0,16.8,0.4,25.2,1.2c11.9,1.1,23.6,3.1,35,6.6c9.7,3,19,7.1,27.5,12.8
			c12.3,8.2,21.4,19.2,27.9,32.4c4.6,9.5,7.5,19.6,9.6,30.1c2.8,13.9,3.9,28,4.5,42.2c0.2,3.4,0.3,6.7,0.4,10.1
			c0,0.5,0.3,1.4-0.5,1.4l0,0c-0.8,0-0.6-0.9-0.6-1.4c-0.4-6.8-0.8-13.6-1.6-20.3c-1.5-13.1-3.8-26.1-8.2-38.5
			c-4-10.8-9.4-20.7-17.1-29.4c-6.9-7.7-15.2-13.9-24.4-18.7c-10.3-5.4-21.3-8.7-32.7-11.1c-10.2-2.1-20.5-3.3-31-3.9
			c-5.9-0.3-11.6-0.5-17.5-0.5c-5.2,0-10.2,0.1-15.4,0.3c-7.6,0.3-15.3,0.8-22.9,1.5c-10.4,0.9-20.7,2.2-31.1,3.6
			c-9.2,1.3-18.5,2.8-27.7,4.4c-5.6,1-11,2-16.6,3.1c-0.3,0.1-0.6,0.1-0.7,0.1c-0.5,0-0.5-0.3-0.2-1.1c1-3.7,2.1-7.3,3.1-11.1
			c0.3-1.1,1.1-1.1,1.8-1.2c5.9-1.1,11.7-2.2,17.6-3.2c11.1-2,22.2-3.7,33.4-5.1c15.4-2,30.8-3.5,46.2-4c3.6-0.1,7-0.2,10.6-0.2
			c0.1,0,0.2,0,0.4,0C152.9,398.3,154.6,398.3,156.4,398.3 M156.4,396.3c-1.7,0-3.5,0-5.3,0h-0.3c-3.1,0-6.4,0.1-10.7,0.2
			c-14.1,0.5-29.3,1.9-46.3,4.1c-11,1.4-22.3,3.1-33.5,5.1c-4.8,0.8-9.6,1.7-14.3,2.6l-3.3,0.6h-0.2c-0.8,0.1-2.6,0.4-3.2,2.6
			s-1.2,4.4-1.8,6.4c-0.4,1.6-0.9,3.1-1.3,4.7c-0.2,0.6-0.5,1.7,0.3,2.7c0.3,0.3,0.8,0.9,1.9,0.9c0.3,0,0.7,0,1.1-0.1
			c1.9-0.3,3.7-0.7,5.6-1c3.6-0.7,7.3-1.4,10.9-2c10.8-1.9,19.5-3.3,27.6-4.4c11.1-1.6,21.2-2.7,31-3.6c7.2-0.6,14.7-1.1,22.9-1.5
			c5.2-0.2,10.3-0.3,15.3-0.3c5.9,0,11.7,0.2,17.4,0.5c11.2,0.6,21.3,1.9,30.7,3.9c12.5,2.6,23,6.2,32.2,10.9
			c9.3,4.9,17.4,10.9,23.9,18.2c7.1,7.9,12.6,17.4,16.7,28.7c3.9,10.7,6.4,22.4,8.1,38.1c0.8,6.8,1.2,13.8,1.6,20.2v0.1
			c0,0.5-0.1,1.5,0.7,2.3c0.5,0.5,1.1,0.8,1.9,0.8l0,0h0.1c0.8,0,1.5-0.3,1.9-0.9c0.7-0.9,0.6-1.9,0.5-2.4c0-0.1,0-0.1,0-0.1
			c-0.1-3.6-0.2-6.9-0.4-10.1c-0.6-12.6-1.6-27.5-4.6-42.5c-2.3-11.7-5.5-21.6-9.7-30.5c-6.6-13.8-16.3-25-28.5-33.2
			c-8.1-5.5-17.3-9.7-28-13.1c-10.6-3.3-22.1-5.5-35.4-6.7C173.5,396.7,165,396.3,156.4,396.3L156.4,396.3z"/>
	</g>
	<g>
		<path class="st0" d="M373.4,425.6c-12.4,0-23.4-0.1-32.5-0.4c-13.7-0.2-26-0.6-38-1l-8.5-0.3c-6.3-0.2-12.4-0.4-18.7-0.6
			c-5.9-0.2-11.7-0.4-17.6-0.6c-1.5,0-2.6-0.5-3.7-1.6c-3.8-3.9-8.5-6.8-12.6-9.3c-3.1-1.8-6.4-3.6-10.1-5.2c-0.1,0-0.2-0.1-0.2-0.1
			c-0.1-0.1-0.3-0.1-0.4-0.2c-0.8-0.4-1.2-1.2-0.9-2c0.2-0.7,0.8-1.2,1.6-1.2c0.7,0,1.3,0.1,1.9,0.1c10.1,1,21,2,34.5,3.1l1.1,0.1
			c9.1,0.7,18.5,1.5,27.7,2.2c9.7,0.7,19.2,1.3,28.1,1.9c15.5,1,31,1.8,45.9,2.5c20,0.9,35.5,1.2,50.1,1.2c4.2,0,8.3,0,12.4-0.1
			c8.4-0.1,17.3-0.5,26.4-1.2c12.2-0.9,23.4-2.1,34.2-3.9c12.9-2.1,26-5,38.8-8.5c2.5-0.7,5.1-1.4,7.5-2.1l4-1.1
			c0.2,0,0.3-0.1,0.5-0.1c0.2-0.1,0.5-0.1,0.7-0.1c0.7,0,1.2,0.4,1.5,1.1c0.2,0.5,0.1,1,0,1.2c-0.3,0.6-0.9,0.8-1.2,0.9l-0.4,0.2
			c-0.7,0.3-1.5,0.5-2.2,0.8l-3.3,1.2c-6.7,2.4-13.7,4.9-20.7,6.9c-13.6,4.1-28.2,7.2-43.4,9.6c-9.1,1.4-18.5,2.7-27.8,3.6
			c-7.9,0.8-16.5,1.5-26.1,2c-13.4,0.7-28.1,1.1-46.2,1.1L373.4,425.6z"/>
		<path class="st1" d="M545.3,398.1c0.2,0,0.4,0.1,0.6,0.4c0.2,0.5-0.2,0.7-0.6,0.9c-0.9,0.3-1.7,0.7-2.6,1
			c-7.9,2.8-15.9,5.7-23.9,8c-14.2,4.2-28.6,7.3-43.3,9.6c-9.2,1.5-18.5,2.7-27.8,3.6c-8.6,0.9-17.4,1.5-26,2
			c-15.4,0.8-30.8,1.1-46.2,1.1c-0.8,0-1.5,0-2.3,0c-11.6,0-23.1,0-32.5-0.4c-17-0.3-31.8-0.8-46.5-1.3c-12.1-0.4-24.1-0.8-36.2-1.2
			c-1.2,0-2.1-0.4-3-1.3c-3.8-3.9-8.2-6.7-12.8-9.4c-3.3-2-6.7-3.7-10.2-5.3c-0.2-0.1-0.4-0.2-0.6-0.3c-0.4-0.2-0.5-0.5-0.4-0.8
			c0.1-0.3,0.3-0.5,0.6-0.5l0,0c0.6,0,1.2,0.1,1.7,0.1c11.5,1.2,23,2.2,34.5,3.1c9.6,0.8,19.2,1.6,28.8,2.3
			c9.3,0.7,18.8,1.3,28.1,1.9c15.3,1,30.7,1.8,45.9,2.5c16.7,0.7,33.4,1.3,50.1,1.3c4.2,0,8.2,0,12.4-0.1c8.8-0.1,17.7-0.6,26.4-1.2
			c11.5-0.8,22.9-2.1,34.3-3.9c13.1-2.1,26.1-5,38.9-8.6c3.8-1.1,7.5-2.1,11.2-3.2c0.2-0.1,0.4-0.1,0.7-0.2
			C545,398.1,545.2,398.1,545.3,398.1 M545.3,396.1c-0.4,0-0.7,0.1-1,0.1c-0.2,0-0.3,0.1-0.5,0.1l-0.2,0.1l-3.6,1
			c-2.6,0.7-5.1,1.4-7.6,2.2c-12.8,3.7-25.8,6.5-38.7,8.5c-10.8,1.7-21.9,3-34.1,3.9c-9,0.7-18,1.1-26.3,1.2
			c-4,0.1-8.1,0.1-12.4,0.1c-14.6,0-30-0.4-50-1.2c-15-0.6-30.5-1.5-45.9-2.5c-8.4-0.5-18.4-1.2-28.1-1.9
			c-9.2-0.7-18.7-1.5-27.8-2.2l-1-0.1c-13.5-1.1-24.4-2.1-34.5-3.1c-0.7-0.1-1.3-0.1-1.8-0.1l0,0h-0.1c-1.2,0-2.2,0.7-2.5,1.9
			c-0.4,1.3,0.2,2.6,1.4,3.2c0.2,0.1,0.3,0.1,0.5,0.2c0.1,0,0.1,0.1,0.2,0.1c3.7,1.7,6.9,3.3,10,5.2c4.3,2.6,8.7,5.4,12.4,9.1
			c1.2,1.3,2.6,1.9,4.4,1.9c5.9,0.2,11.7,0.4,17.7,0.6c6.1,0.2,12.4,0.4,18.7,0.6c2.9,0.1,5.8,0.2,8.6,0.3c11.9,0.4,24.2,0.8,37.9,1
			c9.1,0.3,20.1,0.4,32.5,0.4h2.3c18.2,0,32.9-0.3,46.3-1.1c9.6-0.5,18.2-1.2,26.1-2c9.4-1,18.8-2.2,27.9-3.6
			c15.2-2.4,29.9-5.7,43.5-9.7c7-2.1,14-4.6,20.7-6.9l3.3-1.2c0.7-0.3,1.5-0.5,2.2-0.8l0.4-0.2c0.4-0.1,1.3-0.5,1.7-1.5
			c0.2-0.4,0.4-1.1,0-2C547.3,396.7,546.4,396.1,545.3,396.1L545.3,396.1z"/>
	</g>
	<g>
		<path class="st2" d="M103.1,530.5c-0.8,0-1.4-0.1-1.9-0.4c-1-0.6-1.5-1.6-2-2.5c-0.1-0.3-0.3-0.6-0.4-0.9
			c-6-9.8-11.8-19.6-17.8-29.5l-5.5-9.1c-0.1-0.1-0.2-0.3-0.3-0.4c-0.2-0.3-0.4-0.6-0.6-1c-0.1-0.1-0.1-0.1-0.3-0.1
			c-0.9,0-1.7,0-2.5,0s-1.5,0-2.3,0c0,0.4,0,0.8,0,1.2v0.6v38.7v0.5c0,0.3,0,0.6,0,0.9c0,0.6-0.1,1.1-0.5,1.4
			c-0.5,0.5-1.2,0.5-1.5,0.5c-1.6,0-3.2,0-4.8,0c-1.6,0-3.3,0-4.9,0c-0.7,0-1.2-0.2-1.6-0.6c-0.4-0.4-0.5-0.9-0.5-1.5
			c0-0.3,0-0.5,0-0.8v-0.4v-14.4c0-19.2,0-38.5,0-57.7v-0.1c0-1.8,0-3.4-0.3-5c-0.4-2-1.5-3.3-3.4-4.1c-2-0.8-4.1-1.2-6.4-1.7
			l-1.4-0.3c-0.7-0.1-2-0.4-2-2.1c0-0.7,0-1.4,0.5-2c0.5-0.5,1.2-0.5,1.9-0.5h20.3c5.9,0,11.6,0,17.5,0c6,0,10.6,0.7,14.9,2.2
			c5.4,1.9,9,5,11.3,9.3c1.3,2.5,2.1,5.2,2.3,7.9c0.5,4.5,0.6,9.6-1.9,14.7c-2,4-5.2,6.9-9.6,9.1c-2.9,1.4-6.1,2.3-10.1,3
			c-0.1,0-0.2,0-0.3,0c0,0.1,25.1,41.9,25.1,41.9c0.2,0.4,0.6,0.9,0.7,1.8l0.1,1.1h-6.4c-1.3,0-2.6,0-3.8,0l0,0c-0.4,0-0.7,0-1,0.1
			C103.9,530.5,103.5,530.5,103.1,530.5z M72.6,479.5c1.1,0,2.4,0,3.8-0.1c3.1-0.1,6.6-0.4,10-1.6c5.4-1.8,8.5-5.4,9.8-10.7
			c0.5-2.2,0.5-4.5,0.4-6.4c-0.2-6.1-3.3-10.4-8.9-12.6c-2.8-1-5.9-1.5-9.7-1.5c-0.3,0-1.4,0-1.4,0c-1.5,0-2.9,0-4.2,0.4
			c-1.4,0.4-2.1,1.1-2.4,2.5c-0.2,1.1-0.3,2.2-0.3,3.3v13.5l0,0v2.8c0,3.4,0,6.7,0,10.1c0,0.1,0,0.2,0,0.3
			C69.8,479.5,72.6,479.5,72.6,479.5z"/>
		<path class="st1" d="M65.5,440.4c5.9,0,11.7,0,17.6,0c5,0,9.8,0.5,14.6,2.2c4.7,1.6,8.4,4.4,10.7,8.8c1.2,2.4,2,4.9,2.2,7.5
			c0.5,4.9,0.4,9.6-1.8,14.1c-2,4.1-5.2,6.7-9.2,8.6c-3.2,1.5-6.4,2.4-9.8,2.9c-1.7,0.3-1.7,0.3-0.8,1.8
			c5.2,8.6,10.3,17.3,15.6,25.9c3.1,5.2,6.3,10.4,9.3,15.6c0.2,0.4,0.5,0.8,0.6,1.5c-1.8,0-3.6,0-5.3,0c-1.3,0-2.6,0-3.8,0l0,0
			c-0.7,0-1.4,0.1-2.1,0.1c-0.5,0-1-0.1-1.4-0.3c-1-0.6-1.4-1.9-2-3c-7.7-12.9-15.5-25.7-23.2-38.6c-0.3-0.4-0.6-0.9-0.8-1.3
			c-0.3-0.5-0.7-0.7-1.2-0.7l0,0c-0.8,0-1.7,0-2.5,0s-1.6,0-2.3,0l0,0c-0.6,0-0.9,0.2-0.9,0.9c0,0.6,0,1.3,0,1.9
			c0,12.9,0,25.8,0,38.7c0,0.5,0,0.9,0,1.4c0,0.7-0.3,0.9-0.9,0.9l0,0c-1.6,0-3.2,0-4.7,0c-1.6,0-3.3,0-4.9,0l0,0c-0.7,0-1-0.3-1-1
			c0-0.4,0-0.8,0-1.2c0-24,0-48.1,0-72.1c0-1.8,0-3.6-0.3-5.3c-0.5-2.3-1.8-3.9-4-4.8c-2.5-1-5.2-1.4-7.8-2
			c-0.6-0.1-1.2-0.2-1.2-1.1c0-1.3,0.1-1.5,1.4-1.5C52,440.4,58.7,440.4,65.5,440.4 M72.6,480.5c1.3,0,2.6,0,3.9-0.1
			c3.5-0.1,6.9-0.5,10.3-1.6c5.6-1.9,9.1-5.7,10.4-11.5c0.5-2.2,0.5-4.5,0.5-6.6c-0.2-6.4-3.6-11.2-9.6-13.5
			c-3.3-1.2-6.6-1.6-10.1-1.6c-0.3,0-0.6,0-0.9,0c-1.7,0-3.3,0-5,0.4c-1.7,0.5-2.8,1.5-3.1,3.3c-0.2,1.1-0.3,2.3-0.3,3.4
			c0,4.2,0,8.3,0,12.5l0,0c0,4.7,0,9.2,0,13.9c0,1.3,0,1.3,1.2,1.3C70.8,480.5,71.7,480.5,72.6,480.5 M65.5,438.4
			c-3.6,0-7.1,0-10.6,0c-3.2,0-6.4,0-9.6,0c-0.7,0-1.8,0-2.6,0.8c-0.8,0.8-0.8,1.9-0.8,2.7c0,1.6,1,2.6,2.8,3h0.1
			c0.5,0.1,0.9,0.2,1.4,0.3c2.2,0.4,4.2,0.9,6.2,1.6c1.6,0.6,2.4,1.6,2.8,3.3c0.3,1.5,0.3,3.1,0.3,4.8v0.1c0,19.4,0,38.9,0,58.3V527
			c0,0.1,0,0.3,0,0.4c0,0.2,0,0.5,0,0.7c-0.1,1.1,0.4,1.9,0.7,2.3c0.6,0.6,1.3,0.9,2.3,0.9c1.7,0,3.3,0,5,0c1.6,0,3.2,0,4.7,0
			c0.9,0,1.7-0.3,2.2-0.9c0.4-0.4,0.8-1.1,0.7-2.1c0-0.3,0-0.5,0-0.8c0-0.2,0-0.3,0-0.5v-17.6v-21.1c0-0.2,0-0.4,0-0.6
			c0-0.1,0-0.1,0-0.2c0.4,0,0.8,0,1.3,0c0.7,0,1.5,0,2.2,0c0.1,0.2,0.3,0.5,0.4,0.7c0.1,0.1,0.2,0.3,0.3,0.4l5.4,9
			c6,9.8,11.8,19.7,17.8,29.6c0.1,0.2,0.3,0.5,0.4,0.8c0.5,1,1.1,2.2,2.4,2.9c0.7,0.4,1.5,0.5,2.4,0.5c0.4,0,0.8,0,1.2-0.1
			c0.3,0,0.6-0.1,0.9-0.1c1.3,0,2.6,0,3.9,0h2.6h2.7h2.3l-0.3-2.2c-0.1-1.1-0.5-1.8-0.8-2.2l-0.1-0.1l-0.9-1.5l-8.4-14.1l-3-5
			c-4-6.6-7.9-13.3-11.9-19.8c3.6-0.7,6.5-1.6,9.2-2.9c4.8-2.3,8-5.4,10.1-9.5c2.6-5.3,2.5-10.6,2-15.2c-0.3-2.9-1.1-5.7-2.5-8.2
			c-2.4-4.7-6.3-7.8-11.8-9.8c-4.4-1.5-9.1-2.3-15.2-2.3C77.9,438.4,72.3,438.4,65.5,438.4L65.5,438.4z M70.7,467.3L70.7,467.3v-2
			v-3.5v-9.1c0-1,0.1-2,0.3-3.1c0.2-1,0.6-1.4,1.7-1.7c1.2-0.3,2.6-0.3,4-0.4h0.5c0.3,0,0.6,0,0.9,0c3.8,0,6.7,0.5,9.4,1.5
			c5.3,2,8.1,6.1,8.3,11.7c0.1,1.9,0.1,4.1-0.4,6.2c-1.1,5.1-4.1,8.3-9.1,10c-3.3,1.1-6.7,1.4-9.7,1.5c-1.1,0-2.3,0.1-3.8,0.1
			c-0.6,0-1.2,0-1.9,0h-0.1c0-3.2,0-6.3,0-9.4L70.7,467.3L70.7,467.3z"/>
	</g>
	<g>
		<path class="st2" d="M148.7,531.9c-3,0-6.3-0.2-10-0.6c-3.2-0.4-6.3-0.9-9.9-1.7c-1.9-0.4-2.3-0.8-2.3-2.7c0-1.8,0-3.6,0-5.4v-1.3
			c0-0.3,0-0.9,0.4-1.5l0.3-0.3l0.4-0.1c0.1,0,0.2,0,0.3,0c0.6,0,1.1,0.3,1.5,0.5c0.1,0.1,0.2,0.1,0.3,0.2c7.8,3.4,14.5,5,21.1,5
			h0.2c2.3,0,4.5-0.3,6.5-0.9c6-1.7,9.4-5.9,10.2-12c0.9-6.5-1.6-11.8-7.5-16c-3.3-2.3-6.8-4.2-10.4-6.1l-1.3-0.7
			c-4.1-2.1-8.3-4.3-12.1-7c-5.3-3.8-8.3-7.7-9.7-12.5c-2.5-8.3-1.3-15.6,3.7-21.7c2.8-3.5,6.5-5.9,12-7.4c4-1.2,8.1-1.8,13.2-1.8
			c1,0,2,0,2.9,0.1c5,0.2,10,0.8,15,1.8h0.2c1.8,0.3,2.3,0.6,2.3,2.5c0,0.2,0,0.4,0,0.6c0,1.7,0,3.4,0,5.1v3.1l-0.8,0.1
			c-0.2,0-0.4,0-0.5,0c-0.7,0-1.3-0.3-1.8-0.5c-0.1,0-0.2-0.1-0.3-0.1c-5.2-2.3-9.9-3.6-14.5-4.2c-1.9-0.2-3.5-0.3-4.9-0.3
			c-2.9,0-5.4,0.5-7.6,1.4c-4.4,1.8-6.2,4.9-6.8,7.1c-1.1,3.4-0.6,7.1,1.3,10.1c1.4,2.1,3.3,4,6.1,5.9c3.2,2.2,6.6,3.9,10,5.6l1.9,1
			c5.1,2.6,9.3,4.9,13.3,7.9c5.6,4.4,8.8,9.1,9.8,14.7c2,10.6-0.8,19.1-8.1,25.1c-3.3,2.7-7.5,4.7-12.8,5.9
			C156.6,531.5,152.9,531.9,148.7,531.9z"/>
		<path class="st1" d="M155.6,438.9c1,0,1.9,0,2.9,0.1c5,0.2,9.9,0.8,14.8,1.7c2,0.4,1.7,0.3,1.7,2.1c0,2.4,0,4.8,0,7.2
			c-0.1,0-0.2,0-0.3,0c-0.6,0-1.1-0.3-1.7-0.5c-4.8-2.1-9.6-3.6-14.8-4.3c-1.7-0.2-3.4-0.3-5-0.3c-2.7,0-5.4,0.4-8,1.5
			c-8.5,3.5-9.7,12.8-6,18.8c1.6,2.6,3.9,4.5,6.4,6.2c3.8,2.6,7.9,4.6,12,6.6c4.6,2.3,9,4.7,13.1,7.8c4.7,3.7,8.3,8.1,9.4,14.1
			c1.8,9.4-0.1,17.8-7.8,24.2c-3.6,3-7.8,4.7-12.4,5.7c-3.8,0.9-7.5,1.2-11.3,1.2c-3.3,0-6.5-0.3-9.9-0.6c-3.3-0.4-6.5-1-9.8-1.7
			c-1.5-0.3-1.5-0.3-1.5-1.8c0-2.2,0-4.4,0-6.5c0-0.3,0-0.7,0.2-1c0.1,0,0.1,0,0.2,0c0.6,0,1,0.3,1.5,0.5c6.8,3,14,5,21.5,5
			c0.1,0,0.2,0,0.2,0c2.3,0,4.6-0.3,6.7-0.9c6.4-1.8,10.1-6.4,11-12.9c1-7.3-2.1-12.8-7.9-16.9c-3.4-2.4-6.9-4.3-10.5-6.1
			c-4.6-2.3-9.1-4.6-13.3-7.5c-4.3-3.1-7.8-6.7-9.4-11.9c-2.3-7.4-1.6-14.5,3.5-20.7c3-3.7,7-5.8,11.5-7.1
			C146.8,439.3,151.2,438.9,155.6,438.9 M155.6,436.9c-5.2,0-9.5,0.6-13.5,1.8c-5.7,1.7-9.6,4.2-12.5,7.8c-5.2,6.4-6.4,14-3.8,22.6
			c1.5,4.9,4.7,9,10.1,13c3.9,2.8,8.1,5,12.3,7l1.3,0.6c3.6,1.8,7,3.7,10.3,6c5.7,4,7.9,8.7,7.1,15c-0.8,5.8-4.1,9.6-9.5,11.2
			c-2,0.5-4.1,0.8-6.3,0.8H151c-6.4,0-13.1-1.5-20.7-4.9c-0.1,0-0.2-0.1-0.2-0.1c-0.4-0.2-1.1-0.6-2-0.6c-0.1,0-0.3,0-0.4,0
			l-0.8,0.1l-0.5,0.7c-0.6,0.8-0.6,1.7-0.6,2.1v0.1v1.2c0,1.8,0,3.6,0,5.4c0,2.4,0.7,3.2,3.1,3.7c3.7,0.7,6.7,1.3,10,1.7
			c3.8,0.4,7.1,0.7,10.1,0.7c4.3,0,8-0.4,11.7-1.2c5.5-1.3,9.7-3.3,13.2-6.1c7.7-6.4,10.6-15.1,8.5-26.1
			c-1.1-5.8-4.5-10.8-10.2-15.3c-4.4-3.4-9.4-6-13.4-8c-0.6-0.3-1.3-0.7-1.9-1c-3.4-1.7-6.7-3.4-9.9-5.6c-2.8-1.9-4.6-3.6-5.9-5.6
			c-1.8-2.8-2.2-6.3-1.2-9.3c0.7-2.1,2.3-5,6.3-6.5c2.2-0.9,4.6-1.3,7.2-1.3c1.4,0,2.9,0.1,4.8,0.3c4.5,0.5,9.1,1.9,14.3,4.1
			c0.1,0,0.2,0.1,0.3,0.1c0.5,0.2,1.2,0.6,2.2,0.6c0.2,0,0.5,0,0.7-0.1l1.7-0.3v-1.7v-2.2c0-1.7,0-3.4,0-5.1c0-0.2,0-0.4,0-0.5
			c0-2.6-1.3-3.1-3.1-3.5h-0.2c-5-1-10.1-1.6-15.2-1.8C157.5,436.9,156.6,436.9,155.6,436.9L155.6,436.9z"/>
	</g>
	<g>
		<path class="st2" d="M202.5,533.2c-1,0-1.4-0.5-1.6-1c-0.2-0.4-0.2-0.9-0.2-1.6v-39l0,0V457c0-1.7,0-3.3-0.3-4.8
			c-0.4-2.2-1.5-3.6-3.6-4.2c-1.9-0.6-3.9-0.8-6-1c-0.5,0-1-0.1-1.5-0.2c-1.7-0.2-2-1.3-2.1-2.2c-0.1-2.1,1.6-2.3,2.2-2.4
			c2-0.2,3.9-0.5,5.9-0.7l3.5-0.4c4.3-0.5,8.5-1,12.8-1.6c0.4,0,0.7-0.1,0.9-0.1c1.5,0,1.6,1.3,1.6,2.2c0,0.2,0,0.4,0,0.6v74
			c0,1.2,0,2.8,0.3,4.3c0.4,2.2,1.6,3.5,3.6,4.1c1.6,0.5,3.2,0.7,4.9,0.9l1.2,0.1c0.4,0,0.8,0.1,1.2,0.1c1.3,0.1,2.1,0.9,2,2.2
			c0,1.6-0.4,2.1-2.1,2.4c-2.7,0.4-5.5,0.7-8.1,1l-3.9,0.5c-3.3,0.4-6.5,0.8-9.7,1.2C203.1,533.1,202.8,533.2,202.5,533.2z"/>
		<path class="st1" d="M212.7,440.5c0.6,0,0.6,0.3,0.6,1.3c0,0.3,0,0.6,0,0.9c0,24.6,0,49.1,0,73.7c0,1.5,0.1,3,0.3,4.5
			c0.5,2.5,1.9,4.1,4.3,4.9c2,0.6,4,0.7,6,1c0.5,0.1,1,0.1,1.5,0.2c0.8,0,1.1,0.4,1.1,1.2c0,1.2,0,1.3-1.2,1.4
			c-3.3,0.4-6.4,0.8-9.7,1.2c-4.1,0.5-8,1-12.1,1.5c-0.4,0-0.7,0.1-1,0.1c-0.7,0-0.7-0.3-0.7-1.6c0-12.7,0-25.3,0-38l0,0
			c0-11.9,0-23.7,0-35.6c0-1.7,0-3.3-0.3-5c-0.5-2.5-1.8-4.2-4.2-5c-2.5-0.8-5.1-0.9-7.6-1.2c-0.9-0.1-1.1-0.5-1.2-1.3
			c-0.1-1,0.5-1.3,1.3-1.4c3.2-0.4,6.3-0.8,9.4-1.2c4.3-0.5,8.5-1,12.8-1.6C212.2,440.5,212.5,440.5,212.7,440.5 M212.7,438.5
			c-0.3,0-0.6,0-1,0.1c-4.3,0.5-8.5,1-12.8,1.6c-1.2,0.1-2.3,0.3-3.5,0.4c-2,0.2-3.9,0.5-5.9,0.7c-2.9,0.3-3.1,2.5-3.1,3.5
			c0.1,2.4,1.7,3,2.9,3.2c0.5,0.1,1,0.1,1.5,0.2c2,0.2,4,0.4,5.8,1c1.7,0.5,2.5,1.5,2.9,3.4c0.3,1.5,0.3,3,0.3,4.6V484v6.6l0,0v2
			v9.3v28.7c0,1.1,0,3.6,2.7,3.6c0.3,0,0.7,0,1.2-0.1c3.2-0.4,6.4-0.8,9.6-1.2l2.5-0.3l1.6-0.2c2.7-0.3,5.5-0.7,8.1-1
			c2.4-0.3,2.9-1.5,3-3.3c0.1-1.9-1.1-3.2-3-3.3c-0.4,0-0.7-0.1-1.1-0.1h-0.3l-0.9-0.1c-1.7-0.2-3.3-0.4-4.8-0.8
			c-1.7-0.5-2.6-1.5-2.9-3.3c-0.3-1.5-0.3-3-0.3-4.1c0-20,0-40.1,0-60.2v-13.5v-0.3c0-0.2,0-0.4,0-0.7
			C215.3,440.9,215.2,438.5,212.7,438.5L212.7,438.5z"/>
	</g>
	<g>
		<path class="st0" d="M217.1,384.1c-7.9,0-14.5-6.4-14.5-14.5c0-4,1.5-7.6,4.3-10.3c2.8-2.8,6.4-4.3,10.4-4.3
			c7.9,0,14.4,6.5,14.5,14.5c0,8-6.4,14.6-14.4,14.6H217.1z"/>
		<path class="st1" d="M217.2,356L217.2,356c7.4,0,13.4,6.1,13.5,13.5c0,7.5-6,13.6-13.5,13.6h-0.1c-7.4,0-13.5-6.1-13.5-13.5
			C203.5,362,209.5,356,217.2,356 M217.2,354.1c-4.3,0-8.1,1.6-11.1,4.6c-2.9,2.9-4.6,6.8-4.5,11c0,8.5,6.9,15.5,15.5,15.5h0.1
			c8.5-0.1,15.5-7,15.4-15.6C232.6,361,225.6,354.1,217.2,354.1L217.2,354.1L217.2,354.1L217.2,354.1z"/>
	</g>
	<g>
		<path class="st1" d="M308.7,472.8c-1.2,0-2,0-2.9,0c-0.7,0-0.9-0.6-1.2-1.1c-1.8-3-3.6-6-5.4-8.9c-0.2-0.3-0.4-0.7-0.7-1
			c-0.3-0.4-0.8-0.3-1.3-0.3c-0.6,0.1-0.5,0.6-0.5,0.9c0,3,0,6,0,8.9c0,0.5,0.3,1.2-0.4,1.3c-0.8,0.2-1.6,0.2-2.4-0.1
			c-0.4-0.1-0.3-0.6-0.3-0.9c0-1.3,0-2.5,0-3.8c0-4.4,0-8.7,0-13c0-0.5,0-0.9,0-1.4c-0.1-2.1-0.4-2.5-2.4-3c-0.4-0.1-0.8,0-1-0.5
			c0-0.4,0.4-0.4,0.6-0.4c3.6,0,7.2-0.1,10.8,0.1c0.9,0.1,1.8,0.3,2.7,0.6c1.5,0.6,2.5,1.7,2.9,3.2c0.8,3.7-0.2,6.4-4.2,7.3
			c-0.4,0.1-0.8,0.2-1.4,0.4C304.1,465.2,306.4,469,308.7,472.8z M299.4,451.2C299.4,451.3,299.4,451.3,299.4,451.2
			c-0.4,0-0.8,0-1.2,0c-0.9,0-1.4,0.5-1.4,1.4c0,2.2,0,4.5,0,6.6c0,0.6,0.2,0.8,0.8,0.8c1.1,0,2.2-0.1,3.3-0.3
			c2.4-0.6,3.5-2.3,3.3-5.1c-0.2-2.1-1.6-3.4-4-3.6C299.9,451.3,299.7,451.3,299.4,451.2z"/>
	</g>
	<g>
		<path class="st1" d="M351.2,457.6c1.7-0.6,3.3-0.7,5-0.9c0.4-0.1,0.5,0.4,0.5,0.8c0,0.8-0.1,1.6,0.2,2.6c1.3-1.9,2.6-3.4,4.8-3.5
			c2.3-0.1,3.4,0.8,4.2,3.4c0.6-0.4,0.8-1,1.3-1.5c1.4-1.6,3.1-2.1,5.1-1.7c1.4,0.3,2.2,1.2,2.5,2.5c0.1,0.5,0.2,1,0.2,1.5
			c0,3.7,0,7.3,0,11c0,0.4,0.1,1-0.5,1.1c-0.7,0.1-1.4,0.2-2-0.1c-0.4-0.2-0.2-0.7-0.2-1.1c0-2.9,0-5.8,0-8.6c0-0.9-0.1-1.7-0.1-2.6
			c-0.1-0.8-0.3-1.6-1.2-2c-1-0.4-1.8-0.2-2.6,0.5c-1.7,1.5-2.5,3.4-2.6,5.7c0,2.4,0,4.7,0,7c0,0.4,0.2,1-0.4,1.2
			c-0.7,0.1-1.4,0.3-2-0.1c-0.5-0.3-0.3-0.8-0.3-1.3c0-3.2,0-6.3,0-9.4c0-0.6,0-1.3-0.1-1.9c-0.2-1.5-1.5-2.2-2.9-1.6
			c-0.8,0.3-1.3,0.9-1.8,1.6c-1.1,1.6-1.6,3.3-1.6,5.2c0,2.1,0,4.3,0,6.4c0,0.4,0.2,1-0.4,1.2c-0.6,0.2-1.4,0.2-2,0
			c-0.4-0.2-0.3-0.7-0.3-1.1c0-2.8,0-5.7,0-8.4c0-0.7,0-1.4,0-2.1c0-2.3-0.1-2.4-2.3-3.2C351.5,458,351.4,457.8,351.2,457.6z"/>
	</g>
	<g>
		<path class="st1" d="M336.9,471.2c-0.5-0.1-0.6,0.1-0.8,0.2c-1.8,2.3-6.4,2-8.3-1c-0.4-0.6-0.7-1.2-0.9-1.8
			c-0.9-2.7-0.8-5.5,0.1-8.1c1-2.7,3.2-4.1,6-4c1.5,0.1,2.7,0.8,3.7,1.9c0.5-0.2,0.3-0.6,0.4-0.9c0.1-0.3,0.1-0.6,0.5-0.6
			c1.6,0,3.1-0.1,4.7,0.1c-0.1,0.5-0.3,0.6-0.5,0.7c-1.8,0.7-2,0.9-2,2.9c0,4.2,0,8.3,0,12.5c0,0.8,0,1.6-0.2,2.4
			c-0.3,2.1-1.5,3.5-3.5,4.1c-2.2,0.6-4.3,0.6-6.4-0.1c-1.4-0.4-2.4-1.3-2.8-2.8c-0.2-0.7,0-1,0.7-1c0.3,0,0.7,0,1,0
			c0.8-0.1,1.3,0.1,1.7,1c0.6,1.5,2,1.8,3.4,1.8c1.5,0,2.5-0.7,3-2.2C337.1,474.5,336.9,472.8,336.9,471.2z M337,465.2
			c0-2.5-0.3-4.4-0.9-5.5c-0.6-1.2-1.6-1.8-2.9-1.9c-1.3,0-2.4,0.6-2.9,1.8c-1.4,3.1-1.5,6.4-0.3,9.5c0.5,1.4,1.7,2.2,3.2,2.2
			c1.6,0,2.5-1,3.1-2.3C336.8,467.8,336.9,466.4,337,465.2z"/>
	</g>
	<g>
		<path class="st1" d="M480.4,512.3c-1.1,1-2.2,1.8-3.6,1.9c-2.5,0.1-4.5-0.8-5.6-3c-1.9-3.6-1.8-7.3,0-10.9
			c1.7-3.3,6.1-3.7,8.2-1.6c0.2,0.2,0.5,0.6,0.9,0.4s0.3-0.6,0.3-0.9c0-1.5,0-3,0-4.5c-0.1-1.5-0.4-2.4-2-2.5
			c-0.2,0-0.4-0.1-0.5-0.5c1.5-0.6,3.2-0.6,4.8-0.9c0.3-0.1,0.5,0.2,0.5,0.6c0,0.3,0,0.7,0,1c0,6.8,0,13.8,0,20.6c0,0.2,0,0.3,0,0.5
			c0.1,0.9-0.2,1.2-1.1,1.2C480.9,513.8,480.9,513.9,480.4,512.3z M480.7,505.8c-0.1-1.6-0.1-3.2-0.8-4.7c-0.6-1.3-1.5-2.2-3-2.2
			s-2.5,0.8-3,2.1c-0.9,2.1-1.1,4.2-0.8,6.4c0.2,1.4,0.4,2.7,1.2,3.9c1.2,1.8,3.3,2,4.9,0.4c0.8-0.8,1.2-1.7,1.4-2.7
			C480.6,508,480.8,507,480.7,505.8z"/>
	</g>
	<g>
		<path class="st1" d="M312.8,512.1c-1.1,1.1-2.2,2-3.8,2.1c-2.6,0.2-4.9-1.2-5.9-3.7c-1.3-3.1-1.3-6.2-0.1-9.2
			c1.7-4.3,6.1-5.2,9.4-2c0.1,0.1,0.2,0.1,0.5,0.3c0-2.4,0.2-4.7-0.1-6.8c-0.1-0.7-0.5-1.2-1.3-1.4c-0.4-0.1-0.8,0-1.1-0.5
			c0.6-0.7,1.5-0.5,2.2-0.6c0.9-0.2,2.1-0.8,2.8-0.2c0.7,0.6,0.3,1.8,0.3,2.8c0,6.2,0,12.4,0,18.6c0,0.3,0,0.6,0,0.9
			c0,1.4-1,2.1-2.3,1.5C312.7,513.5,313.2,512.8,312.8,512.1z M313,506.1c0-1.9-0.1-3.7-1-5.3c-0.9-1.5-2.2-2.2-3.8-1.7
			c-1.2,0.3-1.8,1.2-2.2,2.2c-0.7,1.8-1,3.7-0.8,5.6c0.1,1.5,0.3,3.1,1.2,4.5c1.3,2,3.6,2.1,5.1,0.3c0.6-0.7,0.9-1.5,1.1-2.3
			C312.9,508.3,313.1,507.1,313,506.1z"/>
	</g>
	<g>
		<path class="st1" d="M396.3,512.1c-1.5,1.8-3.3,2.4-5.5,1.9c-1.9-0.4-3.2-1.5-4-3.3c-1.5-3.5-1.5-6.9,0.2-10.3
			c1.5-2.9,5-3.9,7.6-2.3c0.6,0.4,1.1,0.9,1.9,1.5c0-2.3,0-4.5,0-6.5c0-0.9-0.6-1.6-1.6-1.8c-0.3-0.1-0.7,0-0.9-0.4
			c0.2-0.5,0.6-0.4,1-0.5c1-0.2,2-0.3,3.1-0.5c1.1-0.1,1.2-0.1,1.2,1.1c0,2.1,0,4.3,0,6.4c0,5.1,0,10,0,15.1c0,0.5,0.3,1.2-0.5,1.3
			c-0.7,0.1-1.4,0.2-2-0.1C396.3,513.4,396.8,512.7,396.3,512.1z M396.6,506c0-1.9-0.1-3.6-1-5.2c-0.8-1.6-2.1-2.2-3.7-1.8
			c-1.2,0.3-1.9,1.1-2.3,2.2c-1.2,3.1-1.2,6.3,0,9.3c0.1,0.3,0.3,0.6,0.5,0.9c1.2,1.6,3,1.8,4.5,0.6c0.7-0.6,1.1-1.3,1.4-2.2
			C396.5,508.6,396.7,507.2,396.6,506z"/>
	</g>
	<g>
		<path class="st1" d="M422.8,512.1c0,2.7,0,5.1,0,7.4c0,1.5-0.9,2.1-2.3,1.5c-0.3-0.1-0.4-0.4-0.4-0.7c0-0.4,0-0.8,0-1.2
			c0-5.5,0-11,0-16.5c0-2.9,0-2.9-2.6-4c0-0.5,0.4-0.5,0.7-0.6c1.1-0.2,2.3-0.3,3.4-0.5c0.9-0.2,1.4,0,1.2,1c0,0.2,0,0.4,0.1,0.6
			c0.3,0.2,0.5-0.1,0.6-0.2c2.2-2.6,6.9-2,8.7,1.7c0.6,1.2,0.8,2.4,0.9,3.7c0.2,2,0.1,4-0.6,6c-1.6,4.2-5.9,5.3-9.2,2.2
			C423.3,512.4,423.2,512.3,422.8,512.1z M422.8,505.8c-0.1,1.1,0,2.3,0.3,3.5c0.1,0.6,0.4,1.2,0.7,1.8c0.6,1.2,1.6,1.9,2.9,1.9
			c1.4,0,2.4-0.9,2.9-2.1c0.9-2.2,1-4.6,0.6-6.9c-0.2-1.3-0.5-2.5-1.2-3.5c-1.2-1.6-3.2-1.7-4.6-0.2c-0.6,0.7-1,1.4-1.2,2.3
			C422.8,503.4,422.7,504.5,422.8,505.8z"/>
	</g>
	<g>
		<path class="st1" d="M404.2,470.3c1.4,0.5,2.6,0.9,3.8,1.2c1.3,0.2,2.5,0.3,3.8,0c3.1-0.8,4.2-4.5,2-6.7c-1-1-2.2-1.7-3.4-2.3
			c-1.3-0.6-2.6-1.3-3.8-2.1c-1.8-1.3-2.9-3-2.8-5.3c0.1-2.2,1.2-3.8,3.2-4.8c1.3-0.6,2.8-0.8,4.2-0.8c1.3,0,2.7,0.1,4,0.3
			c1.3,0.2,1.4,0.3,1.4,1.7c0,0.3,0,0.6-0.3,0.9c-1.3-0.4-2.7-1-4.2-1.1c-1-0.1-2-0.1-2.9,0.2c-2.4,0.8-3.2,3.5-1.5,5.4
			c0.6,0.8,1.5,1.3,2.3,1.8c1.6,0.9,3.2,1.6,4.7,2.6c2.4,1.4,3.6,3.5,3.4,6.3c-0.2,2.1-1.2,3.7-3,4.8c-1.6,1-3.5,1.2-5.3,1.3
			c-1.4,0-2.9-0.2-4.3-0.4c-1.3-0.2-1.3-0.3-1.3-1.6C404.1,471,404.1,470.7,404.2,470.3z"/>
	</g>
	<g>
		<path class="st1" d="M450.6,498.3c1.7-0.3,3.3-0.6,4.9-0.7c0.5,0,0.5,0.4,0.5,0.8c0,0.9,0,1.8,0.3,2.7c0.4-0.5,0.8-1.1,1.3-1.6
			c1.5-1.7,3.3-2.4,5.6-1.9c1.5,0.3,2.3,1.2,2.6,2.6c0.1,0.4,0.1,0.8,0.1,1.2c0,3.8,0,7.5,0,11.3c0,0.4,0.2,0.9-0.3,1
			c-0.7,0.2-1.5,0.3-2.2-0.1c-0.4-0.2-0.2-0.9-0.2-1.3c0-3.1,0-6.2,0-9.2c0-0.5,0-1,0-1.6c-0.2-2.1-1.8-2.9-3.7-1.9
			c-0.8,0.4-1.4,1.1-1.8,1.8c-1,1.5-1.6,3.1-1.6,5c0.1,2,0,4,0,6.1c0,0.4,0.2,1.1-0.3,1.2c-0.7,0.3-1.5,0.3-2.2,0
			c-0.4-0.2-0.2-0.7-0.2-1.1c0-3,0-6,0-8.9c0-0.7,0-1.4,0-2.1c0-1.7-0.3-2.1-1.9-2.6C451.1,499,450.9,499,450.6,498.3z"/>
	</g>
	<g>
		<path class="st1" d="M505.2,513.7c-0.2-1.3-0.1-2.6-0.1-3.9c0-2.5,0-5.1,0-7.5c0-2.1-0.3-3-2.4-3.3c-0.1,0-0.1-0.2-0.2-0.3
			c0-0.4,0.3-0.4,0.6-0.5c1.2-0.2,2.4-0.4,3.6-0.5c1.1-0.1,1.1-0.1,1.1,1.1c0,0.7,0,1.5,0,2.3c0.8-0.2,0.9-0.8,1.2-1.2
			c1.5-1.8,3.4-2.7,5.8-2.2c1.9,0.4,2.7,1.3,2.8,3.2c0.1,1.6,0,3.2,0,4.8c0,2.4,0,4.8,0,7.2c0,1-0.5,1.1-1.3,1.1
			c-1.3,0-1.4,0-1.4-1.1c0-3.2,0-6.3,0-9.4c0-0.5,0-1,0-1.6c-0.1-0.9-0.2-1.9-1.2-2.3s-2.1-0.3-2.9,0.5c-1.8,1.6-3,3.5-3,6
			c0,2.1,0,4.3,0,6.4c0,1.6,0,1.6-1.6,1.6C505.9,513.8,505.5,513.9,505.2,513.7z"/>
	</g>
	<g>
		<path class="st1" d="M372.1,501.1c0.3-0.4,0.7-0.9,1-1.3c1.6-1.9,3.5-2.7,6-2.1c1.4,0.3,2.2,1.2,2.5,2.6c0.1,0.6,0.1,1.1,0.1,1.7
			c0,3.5,0,6.9,0,10.5c0,0.5,0.1,0.9-0.2,1.4c-0.2,0-0.3,0.1-0.5,0.1c-2.4,0-2.1,0.1-2.1-2c0-3,0-6,0-8.9c0-0.3,0-0.7,0-1
			c0-1-0.1-2-1.2-2.5c-1.1-0.4-2.2-0.2-3.1,0.6c-1.7,1.6-2.8,3.5-2.8,5.9c0,2.2,0,4.5,0,6.6c0,0.4,0.2,1-0.4,1.2
			c-0.7,0.1-1.4,0.3-2-0.1c-0.5-0.2-0.2-0.8-0.3-1.3c0-3.3,0-6.5,0-9.8c0-0.4,0-0.8,0-1.2c-0.1-1.5-0.4-1.9-1.8-2.4
			c-0.3-0.1-0.6,0-0.7-0.4c0-0.5,0.4-0.5,0.7-0.5c1.2-0.2,2.4-0.3,3.6-0.6c0.8-0.2,1,0.2,1,0.9c0,0.8,0,1.7,0,2.5
			C371.9,501,372,501,372.1,501.1z"/>
	</g>
	<g>
		<path class="st1" d="M469.7,471.3c-0.5,0.1-0.8,0.6-1.2,0.9c-0.9,0.6-1.9,1-3.1,1c-2,0.1-3.6-0.9-4.2-2.7c-0.6-1.9,0-3.9,1.7-5
			c1.6-1.1,3.4-1.4,5.3-1.5c1.7-0.1,1.9,0.3,1.8-2.1c0-0.6-0.1-1.3-0.2-1.9c-0.3-1.4-1.1-2.1-2.5-2.2c-1.4-0.1-2.3,0.5-2.8,1.8
			c-0.2,0.4,0,1.1-0.6,1.1c-0.8,0.1-1.6,0-2.4,0c-0.4,0-0.3-0.4-0.2-0.7c0.4-1.7,1.6-2.8,3.2-3.3c1.5-0.4,3-0.5,4.4-0.2
			c2.3,0.4,3.4,1.6,3.6,4c0.1,1.4,0.1,2.9,0.1,4.3c0,2.3,0,4.6,0,6.8c0,0.6,0.1,1.1-0.8,1.2c-1.4,0.1-1.7,0-1.9-1
			C469.9,471.7,470,471.4,469.7,471.3z M470.1,466.7c-0.2-0.5,0.4-1.5-0.6-1.5c-1.7,0-3.5,0.3-4.8,1.6c-1.1,1.1-1,3,0.1,4.1
			c1.1,1,2.7,0.9,3.8-0.3C469.7,469.5,469.9,468.2,470.1,466.7z"/>
	</g>
	<g>
		<path class="st1" d="M435.1,465.1c0,1.1-0.1,2.2-0.5,3.3c-0.9,3-3,4.7-6.2,4.8c-3.3,0.2-5.9-1.4-6.9-4.3c-1-2.7-1-5.4-0.1-8
			c0.9-2.8,3-4.3,6-4.4c3-0.1,5.4,0.9,6.7,3.7C434.8,461.7,435.1,463.4,435.1,465.1z M423.8,464.4c-0.1,1.8,0.1,3.4,0.8,5
			c0.8,1.7,2.1,2.6,3.8,2.5c1.8-0.2,2.9-1.2,3.3-2.8c0.8-2.8,0.8-5.7-0.2-8.4c-0.7-1.9-2-2.8-3.8-2.7c-1.7,0.1-3,1.2-3.6,3
			C423.8,462.1,423.8,463.3,423.8,464.4z"/>
	</g>
	<g>
		<path class="st1" d="M496.5,512.3c-0.6,0-0.8,0.5-1.2,0.7c-1.1,0.7-2.2,1.2-3.5,1.2c-1.9,0-3.3-0.9-3.9-2.6
			c-0.7-1.8-0.2-3.6,1.3-4.9c1.1-0.9,2.3-1.3,3.6-1.5c0.7-0.1,1.5-0.3,2.2-0.3c1.6-0.1,1.6-0.1,1.6-1.7c0-0.9,0-1.7-0.3-2.6
			c-0.4-1.2-1.1-1.8-2.4-1.9c-1.3-0.1-2.2,0.4-2.7,1.4c-0.2,0.5,0,1.1-0.5,1.4c-0.7,0.3-1.5,0.1-2.2,0.1c-0.5,0-0.7-0.2-0.6-0.8
			c0.3-1.2,0.9-2.2,2-2.7c2.3-1.2,4.6-1.3,6.9-0.4c1.1,0.4,1.8,1.2,2.1,2.4c0.2,0.7,0.3,1.5,0.4,2.2c0,3.4,0,6.7,0,10.1
			c0,0.4,0.1,1-0.5,1.1c-0.7,0.1-1.5,0.3-2-0.2C496.5,513.4,496.6,512.7,496.5,512.3z M496.6,507.5c0-1.1,0-1.3-0.7-1.3
			c-1.5,0-3,0.3-4.2,1.2c-1,0.8-1.1,1.9-0.9,3.1c0.2,1,0.8,1.6,1.8,1.8c1.2,0.3,2.2-0.2,2.9-1.1
			C496.2,510.2,496.6,509.1,496.6,507.5z"/>
	</g>
	<g>
		<path class="st1" d="M444.6,514.2c-4.8,0-7.5-2.3-8.2-6.7c-0.3-2-0.2-3.9,0.4-5.8c1.4-5,8.1-5.1,10.5-2.7c1,1,1.5,2.3,1.7,3.7
			c0.1,1.3,0,1.4-1.2,1.4c-2.3,0-4.5,0-6.7,0c-2.2,0-2.2,0-1.8,2.2c0.7,3.6,3,6,6.1,6.4c0.9,0.1,1.7,0,2.6-0.2
			c0.4-0.1,0.7-0.1,0.8,0.4c0.1,0.4-0.1,0.7-0.5,0.8C446.8,514,445.6,514.2,444.6,514.2z M439.1,502.8c2,0,3.9,0,5.8,0
			c0.7,0,0.9-0.3,0.9-0.9c-0.1-1.6-1.3-2.8-2.8-3C440.7,498.8,439.3,500.1,439.1,502.8z"/>
	</g>
	<g>
		<path class="st1" d="M411.1,504c-1.3,0-2.7,0-4,0c-0.7,0-1.1,0.2-1.1,1c0.1,3.1,2.2,7,6.2,7.7c0.9,0.1,1.7,0,2.6-0.2
			c0.4-0.1,0.7-0.1,0.8,0.4c0.1,0.4-0.1,0.7-0.5,0.8c-2.8,0.6-5.5,0.8-8-0.6c-2.3-1.3-3.2-3.4-3.6-5.8c-0.3-1.9-0.2-3.8,0.3-5.7
			c0.7-2.3,2.2-3.6,4.5-4.1c1.3-0.3,2.6-0.3,3.9,0c2.4,0.7,4,3,3.9,5.5c0,0.7-0.4,0.9-1,0.8C413.6,504,412.4,504,411.1,504
			L411.1,504z M412.8,502.8c0.3-0.5,0.1-0.9,0.1-1.2c-0.3-1.7-1.6-2.8-3.2-2.7c-1.7,0-3.2,1.4-3.4,3.1c-0.1,0.6,0.1,0.9,0.7,0.9
			C408.9,502.8,410.9,502.8,412.8,502.8z"/>
	</g>
	<g>
		<path class="st1" d="M327.6,504c-1.4,0-2.8,0-4.2,0c-0.6,0-0.9,0.3-1,0.9c-0.2,3.5,2.9,7.4,6.4,7.8c0.8,0.1,1.6-0.1,2.4-0.2
			c0.3-0.1,0.6-0.1,0.7,0.2c0.1,0.3,0,0.7-0.3,0.9c-0.1,0.1-0.2,0.1-0.3,0.1c-2.5,0.5-5,0.7-7.4-0.4c-1.9-0.9-3.1-2.4-3.7-4.4
			c-0.7-2.3-0.7-4.7-0.2-6.9c0.8-3.4,3.9-5.2,7.5-4.6c3,0.5,4.7,2.5,4.8,5.4c0,0.8-0.2,1.1-1.1,1.1C330.1,504,328.9,504,327.6,504
			L327.6,504z M326.1,502.8c0.9,0,1.7,0,2.6,0c0.6,0,0.8-0.2,0.7-0.8c-0.2-1.8-1.5-3-3.2-3.1c-1.7-0.1-3.2,1.1-3.6,2.9
			c-0.1,0.7,0,1.1,0.8,1.1C324.3,502.8,325.2,502.8,326.1,502.8z"/>
	</g>
	<g>
		<path class="st1" d="M386.4,463c-1.3,0-2.7,0-4,0c-0.7,0-1,0.3-1,1c-0.1,4.6,3.8,8.1,8.3,7.6c0.2,0,0.5-0.1,0.7-0.1
			s0.4,0.1,0.5,0.4c0,0.2,0,0.5-0.2,0.6c-0.1,0.1-0.3,0.2-0.5,0.2c-2.7,0.6-5.4,0.8-7.8-0.6c-1.7-0.9-2.8-2.4-3.3-4.3
			c-0.6-2-0.6-4-0.3-6c0.6-4,3.4-6,7.5-5.6c3,0.3,5,2.6,5.1,5.6c0,0.7-0.2,1-0.9,0.9C389,463,387.7,463,386.4,463L386.4,463z
			 M384.8,461.8L384.8,461.8c0.9,0,1.7,0,2.6,0c1,0,1.1-0.2,0.9-1.2c-0.4-1.8-1.6-2.8-3.2-2.8c-1.7,0-3.2,1.4-3.5,3.1
			c-0.1,0.6,0,0.9,0.7,0.9S383.9,461.8,384.8,461.8z"/>
	</g>
	<g>
		<path class="st1" d="M318.7,463c-1.4,0-2.8,0-4.2,0c-0.7,0-0.9,0.3-0.9,0.9c0.1,3.6,3,8.6,8.2,7.7c0.2,0,0.5-0.1,0.7-0.1
			s0.5,0,0.5,0.3c0.1,0.2,0.1,0.5-0.1,0.6c-0.2,0.2-0.5,0.3-0.8,0.4c-1.8,0.4-3.5,0.5-5.3,0.2c-3-0.6-4.8-2.3-5.6-5.2
			c-0.6-1.9-0.5-3.9-0.3-5.8c0.6-4.4,3.8-6,7.7-5.6c2.9,0.3,4.7,2.6,4.8,5.5c0,0.7-0.2,1-1,1C321.3,463,320,463,318.7,463L318.7,463
			z M317.1,461.8c0.9,0,1.7,0,2.6,0c0.8,0,1-0.3,0.9-1.1c-0.3-1.7-1.6-2.9-3.2-2.9c-1.7,0-3.2,1.2-3.6,3c-0.2,0.8,0.1,1.1,0.9,1
			C315.5,461.8,316.3,461.8,317.1,461.8z"/>
	</g>
	<g>
		<path class="st1" d="M356.3,491.7c2-0.6,4-0.6,5.9-0.9c0.4-0.1,0.7,0.2,0.7,0.6c0,0.5,0,0.9,0,1.4c0,5.5,0,10.8,0,16.3
			c0,0.5,0,1,0,1.6c0.1,1.4,0.4,1.8,1.8,2.1c0.5,0.1,1,0,1.5,0.3c0.1,0.5-0.3,0.6-0.6,0.6c-1.6,0.2-3.2,0.4-4.8,0.6
			c-0.8,0.1-1-0.2-1-0.9c0-1.8,0-3.6,0-5.4c0-4.1,0-8.2,0-12.3c0-2.8,0-2.8-2.7-3.4C356.8,492.3,356.6,492.2,356.3,491.7z"/>
	</g>
	<g>
		<path class="st1" d="M450.9,460.7c-0.4,0.2-0.9,0.1-1.4,0.2c-1.4,0-1.5,0-2-1.4c-0.4-1-1.1-1.5-2.1-1.6c-1.2-0.2-2.3,0.2-3,1.2
			c-0.8,1.1-1,2.3-1.1,3.6c-0.1,1.9,0.3,3.8,1.2,5.5c1.4,2.5,3.5,3.7,6.4,3.5c0.3,0,0.6-0.1,0.9-0.1s0.4,0.1,0.5,0.4
			c0.1,0.2,0,0.5-0.2,0.6c-0.1,0.1-0.2,0.1-0.3,0.2c-2.7,0.6-5.4,0.7-7.8-0.7c-2.2-1.2-3.1-3.3-3.4-5.7c-0.3-1.9-0.3-3.8,0.3-5.6
			c1.4-4.5,7.3-6,10.8-2.9C450.6,458.8,450.8,459.4,450.9,460.7z"/>
	</g>
	<g>
		<path class="st1" d="M344.2,500c-1.3-0.5-2.5-1.1-3.8-1.1c-1.7,0-2.7,0.5-3,1.5c-0.3,1.1,0.2,2,1.7,2.9c1.2,0.7,2.5,1.2,3.7,1.9
			c1.9,1.1,2.8,2.7,2.6,4.9c-0.2,1.5-0.9,2.7-2.3,3.4c-2.5,1.2-5.1,1-7.5,0.3c-1.1-0.3-0.4-1.4-0.7-2.1c0.8-0.2,1.3,0.3,1.8,0.5
			c1.3,0.5,2.6,0.9,4.1,0.6c1.2-0.2,2-0.8,2.3-2s-0.2-2.1-1.2-2.8c-1-0.7-2-1.1-3-1.6c-0.9-0.5-1.9-0.9-2.6-1.7
			c-1.8-1.8-1.5-5,0.8-6.3s4.7-1,7-0.4C344.4,498.1,344.4,498.3,344.2,500z"/>
	</g>
	<g>
		<path class="st1" d="M532.9,511.6c0.8-0.1,1.3,0.4,1.8,0.6c1.4,0.5,2.9,0.9,4.4,0.3c2-0.7,2.5-3,0.9-4.4c-0.6-0.6-1.3-0.9-2.1-1.3
			c-1.1-0.6-2.2-1.1-3.2-1.7c-1.5-1-2.2-2.4-1.8-4.3c0.4-1.8,1.6-2.8,3.2-3.2c1.5-0.4,3-0.3,4.5-0.1c1.8,0.4,1.8,0.3,1.6,2.3
			c-0.6,0.1-1.1-0.3-1.6-0.5c-1-0.4-2-0.5-3.1-0.4c-1,0.1-1.8,0.4-2.1,1.5c-0.3,0.9,0.1,1.8,1.1,2.5c0.7,0.5,1.4,0.8,2.1,1.2
			c1.1,0.6,2.2,1,3.1,1.8c2.7,2.3,2.1,6.4-1.2,7.7c-2.3,1-4.8,0.8-7,0.1C532.3,513.3,532.9,512.3,532.9,511.6z"/>
	</g>
	<g>
		<path class="st1" d="M526.6,493.2c0,1.2,0,2.4,0,3.6c0,0.9,0.4,1.2,1.2,1.2c0.7,0,1.5,0,2.3,0c0.5,0,0.8,0.1,0.8,0.7
			c0,0.5-0.3,0.5-0.7,0.5c-0.8,0-1.6,0-2.4,0c-0.7,0-1.1,0.2-1.1,1c0,3.5,0,6.9,0,10.5c0,1.6,1,2.2,2.8,2.3c0.5,0,1.3-0.6,1.3,0.5
			c0.1,1-0.7,0.8-1.3,0.9c-1.2,0.1-2.3,0.1-3.4-0.3c-1.1-0.3-1.8-1-2-2.2c-0.2-0.7-0.2-1.5-0.2-2.2c0-2.9,0-5.9,0-8.7
			c0-1.5,0.2-1.8-1.5-1.7c-0.2,0-0.3,0-0.5,0c-0.3,0-0.5-0.2-0.5-0.5c0-0.3,0.1-0.7,0.4-0.6c2.1,0.3,2.4-0.8,2.2-2.5
			c0-0.3,0.1-0.6,0.3-0.8c0.7-0.6,1.4-1.2,2-1.8C526.3,493,526.4,493.1,526.6,493.2z"/>
	</g>
	<g>
		<path class="st1" d="M475.5,449.8c1.6-0.6,3.1-0.6,4.6-0.8c0.5-0.1,0.8,0.1,0.8,0.6s0,0.9,0,1.4c0,6.8,0,13.6,0,20.4
			c0,1.5,0,1.5-1.4,1.5c-1.3,0-1.4,0-1.4-1.4c0-5.9,0-11.7,0-17.5c0-0.5,0-0.9,0-1.4c-0.1-1.5-0.3-1.8-1.8-2.3
			C476.1,450.3,475.8,450.3,475.5,449.8z"/>
	</g>
	<g>
		<path class="st1" d="M451.8,457.7c0.4-0.6,1.1-0.5,1.7-0.6c0.8-0.2,1.7-0.2,2.6-0.4c0.8-0.2,1,0.1,1,0.9c0,1.6,0,3.2,0,4.8
			c0,3.2,0,6.3,0,9.4c0,0.4,0.1,1-0.6,1.1c-0.7,0-1.4,0.3-2-0.2c-0.3-0.2-0.2-0.8-0.2-1.2c0-3.5,0-6.8,0-10.3c0-2.4,0-2.4-2.3-3.3
			C451.9,457.9,451.9,457.8,451.8,457.7z"/>
	</g>
	<g>
		<path class="st1" d="M342.9,457.7c0.4-0.6,1.1-0.4,1.7-0.5c0.8-0.2,1.7-0.2,2.5-0.4c0.8-0.2,1,0.1,1,0.9c0,2,0,3.9,0,5.9
			c0,2.8,0,5.6,0,8.4c0,1.1-0.1,1.2-1.4,1.2c-1.3,0-1.4,0-1.4-1.2c0-3.5,0-6.9,0-10.4c0-2.5,0-2.5-2.3-3.4
			C343.1,458,343,457.8,342.9,457.7z"/>
	</g>
	<g>
		<path class="st1" d="M317.4,454.3c-0.6,0-1-0.1-0.8-0.7c0.4-1.3,0.8-2.7,1.2-3.9c0.3-0.8,1.1-1,1.9-0.8c0.7,0.2,1.1,0.8,0.8,1.4
			c-0.6,1.4-1.6,2.6-2.6,3.8C317.7,454.3,317.4,454.3,317.4,454.3z"/>
	</g>
	<g>
		<path class="st1" d="M408.8,495.2c0.4-1.5,0.8-2.9,1.3-4.3c0.3-1,1.4-1.3,2.2-0.9c0.7,0.4,0.9,1.1,0.3,2.1
			c-0.5,0.9-1.2,1.7-1.7,2.5C410.3,495.3,409.7,495.4,408.8,495.2z"/>
	</g>
	<g>
		<path class="st1" d="M457.4,451.3c0,1.1-0.8,2-1.9,2c-1.1,0-2-0.8-2-1.9s0.8-2,1.9-2S457.4,450.2,457.4,451.3z"/>
	</g>
	<g>
		<path class="st1" d="M344.7,451.2c0.1-1.1,1.1-1.9,2.1-1.8c1.1,0.1,1.9,1,1.8,2.1c-0.1,1.1-1,1.9-2.1,1.8
			C345.4,453.2,344.6,452.3,344.7,451.2z"/>
	</g>
</g>
</svg>
