<?xml version="1.0" encoding="utf-8"?>
<!-- Generator: Adobe Illustrator 18.0.0, SVG Export Plug-In . SVG Version: 6.00 Build 0)  -->
<!DOCTYPE svg PUBLIC "-//W3C//DTD SVG 1.1//EN" "http://www.w3.org/Graphics/SVG/1.1/DTD/svg11.dtd">
<svg version="1.1" id="Layer_1" xmlns="http://www.w3.org/2000/svg" xmlns:xlink="http://www.w3.org/1999/xlink" x="0px" y="0px"
	 viewBox="0 0 369.9 491.2" enable-background="new 0 0 369.9 491.2" xml:space="preserve">
<g>
	<path fill="#FFFFFF" stroke="#E6E7E8" stroke-miterlimit="10" d="M367.7,31.7l-12.9,8.2L364.8,22c-2.7-7.5-14.1-21-14.1-21
		C342,27.3,318,60.2,291.6,66.2c-2.8,0.6-5.5-1.2-6.1-4v0c-1.5-7.5-8.7-12.6-16.3-11.4c-6.2,0.9-10.9,5.7-12,11.6l-6,6.4l6.7,1.2
		c0.6,1.5,1.3,2.9,2.3,4.2c0.3,0.3,0.3,0.8,0.2,1.2c-0.2,0.4-0.6,0.7-1,0.7c-38,0.6-83-28.2-83-28.2c0.3,6.4,1.6,13.4,3.9,20.5
		l18.2,7.8l-13.6,3.7c2.9,6,8.6,14.8,13,20.5l21.7-1.6L205.6,109c4.7,4.3,11.5,9.5,17.2,12.9l18.3-5l-8.5,10.2
		c10.7,7.3,24.1,9.4,36.4,11.7c-20.8-18.3-15.4-36.6-10.6-48.8c-1.8,13.6-6.8,32.1,18.9,46.3c2.2,13.3-5,28.4-12.4,38.7
		c2.9,1.6,9.7,4.3,13.6,5.1c1.6,0.3,8.7-14.9,8.7-14.9l3.7,15.9c4.7,0,13.1-2,17.6-4.6l-1.9-15.4l10.6,13.3
		c6.8-2.3,14.1-7.1,18.8-10.9c-43-28-26.7-43.2-33.1-64.3c6.6,11.9,3.7,20.9,6.6,31.3c2.8-1.1,5.6-2.4,8.1-3.8l-3.4-10.1l8.6,6.2
		c5.8-3.9,15.8-11.6,21.6-18.6l-14.5-4.9l22.1-4.2c5.3-6.9,9.8-14.6,12.8-23l-17.4-0.8l20.7-11.2C369.9,51.3,369.9,41.8,367.7,31.7z
		 M263.6,61.1c1.2-0.2,2.3,0.6,2.5,1.8c0.2,1.2-0.6,2.3-1.8,2.5c-1.2,0.2-2.3-0.6-2.5-1.8C261.6,62.4,262.4,61.3,263.6,61.1z"/>
	<g>
		<polygon fill="#B64A22" points="2,411.4 108,472.6 108,466.9 8.7,407.7 		"/>
		<polygon fill="#B64A22" points="108,458.9 108,472.6 336.3,340.8 316.9,329.7 		"/>
		<polygon fill="#AF380C" points="108,466.9 321.9,343.4 321.9,278.9 108,402.4 		"/>
		<polygon fill="#FCFCFC" points="15.1,345.1 108,398.7 315.5,278.9 222.6,225.3 		"/>
		<polygon fill="#CFCFCF" points="8.7,345.1 222.6,221.6 259.8,145.3 45.9,268.8 		"/>
		<polygon fill="#E7E7E7" points="8.7,345.1 42.3,364.5 222.6,260.4 288.3,298.4 321.9,278.9 222.6,221.6 		"/>
		<g>
			<path fill="#D8D8D8" d="M283.2,279.8c-6.9-5.4-41.4-25.6-49-27c-7.6-1.4-47.7,24.2-43.6,26.7c2.3,1.4,61,33.3,63.7,34.9
				c4.1,2.5,34.5-17,34.5-17S290,285.2,283.2,279.8z"/>
			<path fill="#D8D8D8" d="M234.2,252.9c-7.5-1.4-47.4,24-43.3,26.5c2.3,1.4,60.6,33.1,63.3,34.7c4,2.4,34.2-16.9,34.2-16.9
				s1.3-12.2-5.5-17.5C276.1,274.4,241.7,254.3,234.2,252.9z"/>
			<path fill="#D9D9D9" d="M234.2,252.9c-7.4-1.4-47,23.9-43.1,26.3c2.3,1.4,60.3,32.9,62.9,34.5c4,2.4,34-16.8,34-16.8
				s1.4-12.1-5.3-17.3C276,274.4,241.6,254.3,234.2,252.9z"/>
			<path fill="#D9D9D9" d="M234.1,252.9c-7.3-1.4-46.7,23.7-42.8,26.1c2.2,1.3,59.9,32.7,62.5,34.3c3.9,2.4,33.7-16.7,33.7-16.7
				s1.5-12-5.1-17.1C275.8,274.4,241.4,254.3,234.1,252.9z"/>
			<path fill="#DADADA" d="M234.1,252.9c-7.2-1.4-46.4,23.6-42.5,25.9c2.2,1.3,59.5,32.5,62,34.1c3.9,2.3,33.5-16.5,33.5-16.5
				s1.6-11.8-5-16.9C275.6,274.4,241.3,254.3,234.1,252.9z"/>
			<path fill="#DADADA" d="M234.1,253c-7.1-1.3-46.1,23.4-42.3,25.7c2.2,1.3,59.1,32.4,61.6,33.9c3.8,2.3,33.2-16.4,33.2-16.4
				s1.6-11.7-4.8-16.8C275.4,274.4,241.2,254.3,234.1,253z"/>
			<path fill="#DBDBDB" d="M234.1,253c-7-1.3-45.7,23.3-42,25.6c2.1,1.3,58.7,32.2,61.2,33.7c3.8,2.3,33-16.3,33-16.3
				s1.7-11.6-4.7-16.6C275.3,274.3,241.1,254.3,234.1,253z"/>
			<path fill="#DBDBDB" d="M234,253c-6.9-1.3-45.4,23.1-41.7,25.4c2.1,1.3,58.3,32,60.8,33.5c3.7,2.3,32.7-16.2,32.7-16.2
				s1.8-11.5-4.5-16.4C275.1,274.3,241,254.3,234,253z"/>
			<path fill="#DCDCDC" d="M234,253c-6.8-1.3-45.1,23-41.4,25.2c2.1,1.3,57.9,31.8,60.4,33.3c3.7,2.2,32.5-16.1,32.5-16.1
				s1.9-11.4-4.3-16.3C274.9,274.3,240.9,254.3,234,253z"/>
			<path fill="#DCDCDC" d="M234,253.1c-6.7-1.3-44.8,22.8-41.2,25c2,1.2,57.5,31.6,59.9,33.1c3.6,2.2,32.2-16,32.2-16
				s1.9-11.3-4.2-16.1C274.7,274.3,240.7,254.3,234,253.1z"/>
			<path fill="#DDDDDD" d="M234,253.1c-6.6-1.2-44.4,22.7-40.9,24.8c2,1.2,57.2,31.4,59.5,32.8c3.6,2.2,32-15.9,32-15.9
				s2-11.2-4-15.9C274.6,274.2,240.6,254.3,234,253.1z"/>
			<path fill="#DDDDDD" d="M234,253.1c-6.5-1.2-44.1,22.5-40.6,24.6c2,1.2,56.8,31.2,59.1,32.6c3.5,2.1,31.7-15.8,31.7-15.8
				s2.1-11.1-3.9-15.8C274.4,274.2,240.5,254.3,234,253.1z"/>
			<path fill="#DEDEDE" d="M233.9,253.1c-6.4-1.2-43.8,22.4-40.3,24.5c2,1.2,56.4,31,58.7,32.4c3.5,2.1,31.5-15.6,31.5-15.6
				s2.2-11-3.7-15.6C274.2,274.2,240.4,254.3,233.9,253.1z"/>
			<path fill="#DEDEDE" d="M233.9,253.1c-6.4-1.2-43.5,22.2-40.1,24.3c1.9,1.2,56,30.8,58.2,32.2c3.4,2.1,31.2-15.5,31.2-15.5
				s2.2-10.9-3.5-15.4C274,274.2,240.3,254.3,233.9,253.1z"/>
			<path fill="#DFDFDF" d="M233.9,253.2c-6.3-1.2-43.2,22-39.8,24.1c1.9,1.2,55.6,30.7,57.8,32c3.4,2,31-15.4,31-15.4
				s2.3-10.8-3.4-15.2C273.9,274.2,240.2,254.3,233.9,253.2z"/>
			<path fill="#DFDFDF" d="M233.9,253.2c-6.2-1.2-42.8,21.9-39.5,23.9c1.9,1.1,55.2,30.5,57.4,31.8c3.3,2,30.7-15.3,30.7-15.3
				s2.4-10.7-3.2-15.1C273.7,274.1,240,254.3,233.9,253.2z"/>
			<path fill="#E0E0E0" d="M233.8,253.2c-6.1-1.1-42.5,21.7-39.3,23.7c1.8,1.1,54.8,30.3,57,31.6c3.3,2,30.5-15.2,30.5-15.2
				s2.4-10.6-3.1-14.9C273.5,274.1,239.9,254.3,233.8,253.2z"/>
			<path fill="#E0E0E0" d="M233.8,253.2c-6-1.1-42.2,21.6-39,23.5c1.8,1.1,54.4,30.1,56.6,31.4c3.2,1.9,30.2-15.1,30.2-15.1
				s2.5-10.5-2.9-14.7C273.3,274.1,239.8,254.3,233.8,253.2z"/>
			<path fill="#E1E1E1" d="M233.8,253.2c-5.9-1.1-41.9,21.4-38.7,23.3c1.8,1.1,54,29.9,56.1,31.2c3.2,1.9,30-15,30-15
				s2.6-10.4-2.7-14.6C273.2,274.1,239.7,254.3,233.8,253.2z"/>
			<path fill="#E1E1E1" d="M233.8,253.3c-5.8-1.1-41.5,21.3-38.4,23.2c1.8,1.1,53.7,29.7,55.7,31c3.1,1.9,29.7-14.9,29.7-14.9
				s2.7-10.3-2.6-14.4C273,274.1,239.6,254.3,233.8,253.3z"/>
			<path fill="#E2E2E2" d="M233.8,253.3c-5.7-1.1-41.2,21.1-38.2,23c1.7,1.1,53.3,29.5,55.3,30.8c3.1,1.9,29.5-14.7,29.5-14.7
				s2.7-10.2-2.4-14.2C272.8,274,239.4,254.3,233.8,253.3z"/>
			<path fill="#E2E2E2" d="M233.7,253.3c-5.6-1-40.9,21-37.9,22.8c1.7,1,52.9,29.3,54.9,30.5c3,1.8,29.2-14.6,29.2-14.6
				s2.8-10.1-2.2-14C272.6,274,239.3,254.4,233.7,253.3z"/>
			<path fill="#E3E3E3" d="M233.7,253.3c-5.5-1-40.6,20.8-37.6,22.6c1.7,1,52.5,29.1,54.4,30.3c3,1.8,29-14.5,29-14.5
				s2.9-10-2.1-13.9C272.5,274,239.2,254.4,233.7,253.3z"/>
			<path fill="#E3E3E3" d="M233.7,253.3c-5.4-1-40.2,20.7-37.3,22.4c1.6,1,52.1,29,54,30.1c2.9,1.8,28.7-14.4,28.7-14.4
				s3-9.9-1.9-13.7C272.3,274,239.1,254.4,233.7,253.3z"/>
			<path fill="#E4E4E4" d="M233.7,253.4c-5.3-1-39.9,20.5-37.1,22.2c1.6,1,51.7,28.8,53.6,29.9c2.8,1.7,28.5-14.3,28.5-14.3
				s3-9.8-1.8-13.5C272.1,273.9,239,254.4,233.7,253.4z"/>
			<path fill="#E4E4E4" d="M233.6,253.4c-5.2-1-39.6,20.4-36.8,22.1c1.6,1,51.3,28.6,53.2,29.7c2.8,1.7,28.3-14.2,28.3-14.2
				s3.1-9.7-1.6-13.4C271.9,273.9,238.9,254.4,233.6,253.4z"/>
			<path fill="#E5E5E5" d="M233.6,253.4c-5.1-1-39.3,20.2-36.5,21.9c1.6,0.9,50.9,28.4,52.8,29.5c2.7,1.7,28-14.1,28-14.1
				s3.2-9.6-1.4-13.2C271.8,273.9,238.7,254.4,233.6,253.4z"/>
			<path fill="#E5E5E5" d="M233.6,253.4c-5-0.9-38.9,20.1-36.3,21.7c1.5,0.9,50.5,28.2,52.3,29.3c2.7,1.6,27.8-14,27.8-14
				s3.3-9.5-1.3-13C271.6,273.9,238.6,254.4,233.6,253.4z"/>
			<path fill="#E6E6E6" d="M233.6,253.5c-4.9-0.9-38.6,19.9-36,21.5c1.5,0.9,50.2,28,51.9,29.1c2.6,1.6,27.5-13.8,27.5-13.8
				s3.3-9.4-1.1-12.8C271.4,273.9,238.5,254.4,233.6,253.5z"/>
			<path fill="#E6E6E6" d="M233.6,253.5c-4.8-0.9-38.3,19.7-35.7,21.3c1.5,0.9,49.8,27.8,51.5,28.9c2.6,1.6,27.3-13.7,27.3-13.7
				s3.4-9.2-1-12.7C271.2,273.8,238.4,254.4,233.6,253.5z"/>
			<path fill="#E7E7E7" d="M233.5,253.5c-4.7-0.9-38,19.6-35.4,21.1c1.4,0.9,49.4,27.6,51.1,28.7c2.5,1.5,27-13.6,27-13.6
				s3.5-9.1-0.8-12.5C271.1,273.8,238.3,254.4,233.5,253.5z"/>
			<path fill="#E7E7E7" d="M233.5,253.5c-4.6-0.9-37.7,19.4-35.2,21c1.4,0.9,49,27.4,50.6,28.5c2.5,1.5,26.8-13.5,26.8-13.5
				s3.6-9-0.6-12.3C270.9,273.8,238.2,254.4,233.5,253.5z"/>
			<path fill="#E8E8E8" d="M233.5,253.5c-4.6-0.9-37.3,19.3-34.9,20.8c1.4,0.8,48.6,27.3,50.2,28.2c2.4,1.5,26.5-13.4,26.5-13.4
				s3.6-8.9-0.5-12.2C270.7,273.8,238,254.4,233.5,253.5z"/>
			<path fill="#E8E8E8" d="M233.5,253.6c-4.5-0.8-37,19.1-34.6,20.6c1.4,0.8,48.2,27.1,49.8,28c2.4,1.5,26.3-13.3,26.3-13.3
				s3.7-8.8-0.3-12C270.6,273.8,237.9,254.4,233.5,253.6z"/>
			<path fill="#E9E9E9" d="M233.4,253.6c-4.4-0.8-36.7,19-34.3,20.4c1.3,0.8,47.8,26.9,49.4,27.8c2.3,1.4,26-13.2,26-13.2
				s3.8-8.7-0.2-11.8C270.4,273.7,237.8,254.4,233.4,253.6z"/>
			<path fill="#E9E9E9" d="M233.4,253.6c-4.3-0.8-36.4,18.8-34.1,20.2c1.3,0.8,47.4,26.7,49,27.6c2.3,1.4,25.8-13.1,25.8-13.1
				s3.9-8.6,0-11.6C270.2,273.7,237.7,254.4,233.4,253.6z"/>
			<path fill="#EAEAEA" d="M233.4,253.6c-4.2-0.8-36,18.7-33.8,20c1.3,0.8,47,26.5,48.5,27.4c2.2,1.4,25.5-12.9,25.5-12.9
				s3.9-8.5,0.2-11.5C270,273.7,237.6,254.4,233.4,253.6z"/>
			<path fill="#EAEAEA" d="M233.4,253.6c-4.1-0.8-35.7,18.5-33.5,19.9c1.2,0.8,46.7,26.3,48.1,27.2c2.2,1.3,25.3-12.8,25.3-12.8
				s4-8.4,0.3-11.3C269.9,273.7,237.5,254.4,233.4,253.6z"/>
			<path fill="#EBEBEB" d="M233.4,253.7c-4-0.7-35.4,18.4-33.2,19.7c1.2,0.7,46.3,26.1,47.7,27c2.1,1.3,25-12.7,25-12.7
				s4.1-8.3,0.5-11.1C269.7,273.6,237.3,254.4,233.4,253.7z"/>
			<path fill="#EBEBEB" d="M233.3,253.7c-3.9-0.7-35.1,18.2-33,19.5c1.2,0.7,45.9,25.9,47.3,26.8c2.1,1.3,24.8-12.6,24.8-12.6
				s4.2-8.2,0.6-11C269.5,273.6,237.2,254.4,233.3,253.7z"/>
			<path fill="#EBEBEB" d="M233.3,253.7c-3.8-0.7-34.7,18.1-32.7,19.3c1.2,0.7,45.5,25.7,46.8,26.6c2,1.2,24.5-12.5,24.5-12.5
				s4.2-8.1,0.8-10.8C269.3,273.6,237.1,254.4,233.3,253.7z"/>
			<path fill="#ECECEC" d="M233.3,253.7c-3.7-0.7-34.4,17.9-32.4,19.1c1.1,0.7,45.1,25.6,46.4,26.4c2,1.2,24.3-12.4,24.3-12.4
				s4.3-8,1-10.6C269.2,273.6,237,254.4,233.3,253.7z"/>
			<path fill="#ECECEC" d="M233.3,253.7c-3.6-0.7-34.1,17.8-32.2,18.9c1.1,0.7,44.7,25.4,46,26.1c1.9,1.2,24-12.3,24-12.3
				s4.4-7.9,1.1-10.4C269,273.6,236.9,254.4,233.3,253.7z"/>
			<path fill="#EDEDED" d="M233.2,253.8c-3.5-0.7-33.8,17.6-31.9,18.7c1.1,0.6,44.3,25.2,45.6,25.9c1.9,1.1,23.8-12.2,23.8-12.2
				s4.5-7.8,1.3-10.3S236.8,254.4,233.2,253.8z"/>
			<path fill="#EDEDED" d="M233.2,253.8c-3.4-0.6-33.4,17.5-31.6,18.6c1,0.6,43.9,25,45.1,25.7c1.8,1.1,23.5-12,23.5-12
				s4.5-7.7,1.4-10.1C268.6,273.5,236.6,254.4,233.2,253.8z"/>
			<path fill="#EEEEEE" d="M233.2,253.8c-3.3-0.6-33.1,17.3-31.3,18.4c1,0.6,43.5,24.8,44.7,25.5c1.8,1.1,23.3-11.9,23.3-11.9
				s4.6-7.6,1.6-9.9C268.5,273.5,236.5,254.4,233.2,253.8z"/>
			<path fill="#EEEEEE" d="M233.2,253.8c-3.2-0.6-32.8,17.1-31.1,18.2c1,0.6,43.2,24.6,44.3,25.3c1.7,1.1,23-11.8,23-11.8
				s4.7-7.5,1.8-9.8C268.3,273.5,236.4,254.4,233.2,253.8z"/>
			<path fill="#EFEFEF" d="M233.2,253.9c-3.1-0.6-32.5,17-30.8,18c1,0.6,42.8,24.4,43.9,25.1c1.7,1,22.8-11.7,22.8-11.7
				s4.7-7.4,1.9-9.6C268.1,273.5,236.3,254.4,233.2,253.9z"/>
			<path fill="#EFEFEF" d="M233.1,253.9c-3-0.6-32.1,16.8-30.5,17.8c0.9,0.6,42.4,24.2,43.5,24.9c1.6,1,22.5-11.6,22.5-11.6
				s4.8-7.3,2.1-9.4C267.9,273.4,236.2,254.4,233.1,253.9z"/>
			<path fill="#F0F0F0" d="M233.1,253.9c-2.9-0.6-31.8,16.7-30.2,17.6c0.9,0.5,42,24,43,24.7c1.6,1,22.3-11.5,22.3-11.5
				s4.9-7.2,2.2-9.2C267.8,273.4,236.1,254.4,233.1,253.9z"/>
			<path fill="#F0F0F0" d="M233.1,253.9c-2.8-0.5-31.5,16.5-30,17.5c0.9,0.5,41.6,23.9,42.6,24.5c1.5,0.9,22-11.4,22-11.4
				s5-7.1,2.4-9.1C267.6,273.4,235.9,254.4,233.1,253.9z"/>
			<path fill="#F1F1F1" d="M233.1,253.9c-2.8-0.5-31.2,16.4-29.7,17.3c0.8,0.5,41.2,23.7,42.2,24.3c1.5,0.9,21.8-11.3,21.8-11.3
				s5-7,2.6-8.9C267.4,273.4,235.8,254.5,233.1,253.9z"/>
			<path fill="#F1F1F1" d="M233,254c-2.7-0.5-30.9,16.2-29.4,17.1c0.8,0.5,40.8,23.5,41.8,24.1c1.4,0.9,21.5-11.1,21.5-11.1
				s5.1-6.9,2.7-8.7C267.2,273.3,235.7,254.5,233,254z"/>
			<path fill="#F2F2F2" d="M233,254c-2.6-0.5-30.5,16.1-29.2,16.9c0.8,0.5,40.4,23.3,41.3,23.8c1.4,0.8,21.3-11,21.3-11
				s5.2-6.8,2.9-8.6S235.6,254.5,233,254z"/>
			<path fill="#F2F2F2" d="M233,254c-2.5-0.5-30.2,15.9-28.9,16.7c0.8,0.5,40,23.1,40.9,23.6c1.3,0.8,21-10.9,21-10.9s5.3-6.6,3-8.4
				C266.9,273.3,235.5,254.5,233,254z"/>
			<path fill="#F3F3F3" d="M233,254c-2.4-0.4-29.9,15.8-28.6,16.5c0.7,0.4,39.7,22.9,40.5,23.4c1.3,0.8,20.8-10.8,20.8-10.8
				s5.3-6.5,3.2-8.2C266.7,273.3,235.3,254.5,233,254z"/>
			<path fill="#F3F3F3" d="M233,254c-2.3-0.4-29.6,15.6-28.3,16.4c0.7,0.4,39.3,22.7,40.1,23.2c1.2,0.7,20.6-10.7,20.6-10.7
				s5.4-6.4,3.4-8.1S235.2,254.5,233,254z"/>
			<path fill="#F4F4F4" d="M232.9,254.1c-2.2-0.4-29.2,15.5-28.1,16.2c0.7,0.4,38.9,22.5,39.7,23c1.2,0.7,20.3-10.6,20.3-10.6
				s5.5-6.3,3.5-7.9C266.4,273.2,235.1,254.5,232.9,254.1z"/>
			<path fill="#F4F4F4" d="M232.9,254.1c-2.1-0.4-28.9,15.3-27.8,16c0.6,0.4,38.5,22.3,39.2,22.8c1.1,0.7,20.1-10.5,20.1-10.5
				s5.6-6.2,3.7-7.7C266.2,273.2,235,254.5,232.9,254.1z"/>
			<path fill="#F5F5F5" d="M232.9,254.1c-2-0.4-28.6,15.2-27.5,15.8c0.6,0.4,38.1,22.2,38.8,22.6c1.1,0.6,19.8-10.4,19.8-10.4
				s5.6-6.1,3.8-7.5C266,273.2,234.9,254.5,232.9,254.1z"/>
			<path fill="#F5F5F5" d="M232.9,254.1c-1.9-0.4-28.3,15-27.2,15.6c0.6,0.4,37.7,22,38.4,22.4c1,0.6,19.6-10.2,19.6-10.2
				s5.7-6,4-7.4C265.8,273.2,234.8,254.5,232.9,254.1z"/>
			<path fill="#F6F6F6" d="M232.8,254.1c-1.8-0.3-27.9,14.9-27,15.4c0.5,0.3,37.3,21.8,38,22.2c1,0.6,19.3-10.1,19.3-10.1
				s5.8-5.9,4.2-7.2C265.7,273.1,234.6,254.5,232.8,254.1z"/>
			<path fill="#F6F6F6" d="M232.8,254.2c-1.7-0.3-27.6,14.7-26.7,15.3c0.5,0.3,36.9,21.6,37.5,22c0.9,0.6,19.1-10,19.1-10
				s5.9-5.8,4.3-7C265.5,273.1,234.5,254.5,232.8,254.2z"/>
			<path fill="#F7F7F7" d="M232.8,254.2c-1.6-0.3-27.3,14.5-26.4,15.1c0.5,0.3,36.5,21.4,37.1,21.7c0.9,0.5,18.8-9.9,18.8-9.9
				s5.9-5.7,4.5-6.9S234.4,254.5,232.8,254.2z"/>
			<path fill="#F7F7F7" d="M232.8,254.2c-1.5-0.3-27,14.4-26.2,14.9c0.5,0.3,36.2,21.2,36.7,21.5c0.8,0.5,18.6-9.8,18.6-9.8
				s6-5.6,4.6-6.7C265.1,273.1,234.3,254.5,232.8,254.2z"/>
			<path fill="#F8F8F8" d="M232.8,254.2c-1.4-0.3-26.6,14.2-25.9,14.7c0.4,0.3,35.8,21,36.3,21.3c0.8,0.5,18.3-9.7,18.3-9.7
				s6.1-5.5,4.8-6.5C265,273.1,234.2,254.5,232.8,254.2z"/>
			<path fill="#F8F8F8" d="M232.7,254.3c-1.3-0.2-26.3,14.1-25.6,14.5c0.4,0.2,35.4,20.8,35.9,21.1c0.7,0.4,18.1-9.6,18.1-9.6
				s6.2-5.4,5-6.3C264.8,273,234.1,254.5,232.7,254.3z"/>
			<path fill="#F9F9F9" d="M232.7,254.3c-1.2-0.2-26,13.9-25.3,14.3c0.4,0.2,35,20.6,35.4,20.9c0.7,0.4,17.8-9.5,17.8-9.5
				s6.2-5.3,5.1-6.2C264.6,273,233.9,254.5,232.7,254.3z"/>
			<path fill="#F9F9F9" d="M232.7,254.3c-1.1-0.2-25.7,13.8-25.1,14.1c0.3,0.2,34.6,20.5,35,20.7c0.6,0.4,17.6-9.3,17.6-9.3
				s6.3-5.2,5.3-6C264.5,273,233.8,254.5,232.7,254.3z"/>
			<path fill="#FAFAFA" d="M232.7,254.3c-1-0.2-25.4,13.6-24.8,14c0.3,0.2,34.2,20.3,34.6,20.5c0.6,0.3,17.3-9.2,17.3-9.2
				s6.4-5.1,5.4-5.8C264.3,273,233.7,254.5,232.7,254.3z"/>
			<path fill="#FAFAFA" d="M232.6,254.3c-0.9-0.2-25,13.5-24.5,13.8c0.3,0.2,33.8,20.1,34.2,20.3c0.5,0.3,17.1-9.1,17.1-9.1
				s6.5-5,5.6-5.7C264.1,273,233.6,254.5,232.6,254.3z"/>
			<path fill="#FBFBFB" d="M232.6,254.4c-0.9-0.2-24.7,13.3-24.2,13.6c0.3,0.2,33.4,19.9,33.7,20.1c0.5,0.3,16.8-9,16.8-9
				s6.5-4.9,5.8-5.5S233.5,254.5,232.6,254.4z"/>
			<path fill="#FBFBFB" d="M232.6,254.4c-0.8-0.1-24.4,13.2-24,13.4c0.2,0.1,33.1,19.7,33.3,19.9c0.4,0.2,16.6-8.9,16.6-8.9
				s6.6-4.8,5.9-5.3C263.8,272.9,233.4,254.5,232.6,254.4z"/>
			<path fill="#FCFCFC" d="M232.6,254.4c-0.7-0.1-24.1,13-23.7,13.2c0.2,0.1,32.7,19.5,32.9,19.7c0.4,0.2,16.3-8.8,16.3-8.8
				s6.7-4.7,6.1-5.1C263.6,272.9,233.2,254.5,232.6,254.4z"/>
			<path fill="#FCFCFC" d="M232.6,254.4c-0.6-0.1-23.7,12.9-23.4,13c0.2,0.1,32.3,19.3,32.5,19.4c0.3,0.2,16.1-8.7,16.1-8.7
				s6.8-4.6,6.2-5S233.1,254.5,232.6,254.4z"/>
			<path fill="#FDFDFD" d="M232.5,254.4c-0.5-0.1-23.4,12.7-23.2,12.9c0.1,0.1,31.9,19.1,32.1,19.2c0.3,0.2,15.8-8.6,15.8-8.6
				s6.8-4.5,6.4-4.8C263.2,272.8,233,254.5,232.5,254.4z"/>
			<path fill="#FDFDFD" d="M232.5,254.5c-0.4-0.1-23.1,12.6-22.9,12.7c0.1,0.1,31.5,18.9,31.6,19c0.2,0.1,15.6-8.4,15.6-8.4
				s6.9-4.4,6.6-4.6C263.1,272.8,232.9,254.5,232.5,254.5z"/>
			<path fill="#FEFEFE" d="M232.5,254.5c-0.3-0.1-22.8,12.4-22.6,12.5c0.1,0.1,31.1,18.8,31.2,18.8c0.2,0.1,15.3-8.3,15.3-8.3
				s7-4.3,6.7-4.5S232.8,254.5,232.5,254.5z"/>
			<path fill="#FEFEFE" d="M232.5,254.5c-0.2,0-22.4,12.2-22.3,12.3c0.1,0,30.7,18.6,30.8,18.6c0.1,0.1,15.1-8.2,15.1-8.2
				s7.1-4.2,6.9-4.3C262.7,272.8,232.7,254.5,232.5,254.5z"/>
			<path fill="#FFFFFF" d="M232.4,254.5c-0.1,0-22.1,12.1-22.1,12.1c0,0,30.3,18.4,30.4,18.4c0.1,0,14.8-8.1,14.8-8.1s7.1-4,7-4.1
				C262.5,272.8,232.5,254.5,232.4,254.5z"/>
			<polygon fill="#FFFFFF" points="210.6,266.5 240.6,284.7 262.4,272.7 232.4,254.5 			"/>
		</g>
		<path fill="#B64A22" d="M8.7,345.1l99.4,57.4l213.9-123.5l-99.4-57.4L8.7,345.1z M108,395l-86.4-49.9l201-116l86.4,49.9L108,395z"
			/>
		<polygon fill="#AB2700" points="8.7,409.6 108,466.9 108,402.4 8.7,345.1 		"/>
		<polygon fill="#B64A22" points="27.8,261.3 45.9,268.8 259.8,145.3 217.6,151.3 		"/>
		<polygon fill="#AB2700" points="0,325.8 8.7,345.1 45.9,268.8 27.8,261.3 		"/>
		<polygon fill="#AB2700" points="108,491.2 336.3,359.4 336.3,340.8 108,472.6 		"/>
		<polygon fill="#9F2200" points="2,430 108,491.2 108,472.6 2,411.4 		"/>
		<linearGradient id="SVGID_1_" gradientUnits="userSpaceOnUse" x1="203.3925" y1="408.7025" x2="235.859" y2="356.0542">
			<stop  offset="0" style="stop-color:#C7C7C7"/>
			<stop  offset="0.9644" style="stop-color:#E5E4E4"/>
		</linearGradient>
		<path fill="url(#SVGID_1_)" d="M258,356.3c-0.7-0.4-1.2-0.4-1.7-0.2l0,0l0,0l0,0l-75,43.4l3.6,5.9l74.8-43.3c0,0,0,0,0,0l0,0l0,0
			c0.4-0.3,0.7-0.8,0.7-1.5C260.4,358.9,259.4,357,258,356.3z"/>
		<path fill="#BEBEBE" d="M183.1,399.6c-1.3-0.8-2.4-0.1-2.4,1.4c0,1.5,1.1,3.4,2.4,4.2c1.3,0.8,2.4,0.1,2.4-1.4
			C185.6,402.3,184.5,400.4,183.1,399.6z"/>
	</g>
</g>
</svg>
