<?xml version="1.0" encoding="utf-8"?>
<!-- Generator: Adobe Illustrator 18.0.0, SVG Export Plug-In . SVG Version: 6.00 Build 0)  -->
<!DOCTYPE svg PUBLIC "-//W3C//DTD SVG 1.1//EN" "http://www.w3.org/Graphics/SVG/1.1/DTD/svg11.dtd">
<svg version="1.1" id="Layer_1" xmlns="http://www.w3.org/2000/svg" xmlns:xlink="http://www.w3.org/1999/xlink" x="0px" y="0px"
	 viewBox="153.1 31.7 442.6 511.9" enable-background="new 153.1 31.7 442.6 511.9" xml:space="preserve">
<g>
	<g>
		
			<linearGradient id="SVGID_1_" gradientUnits="userSpaceOnUse" x1="228.9598" y1="16.4169" x2="388.1364" y2="292.1191" gradientTransform="matrix(-1.6003 0 0 1.6003 779.6605 31.7086)">
			<stop  offset="0" style="stop-color:#FFD61F"/>
			<stop  offset="0.4967" style="stop-color:#FFD41E"/>
			<stop  offset="0.6756" style="stop-color:#FFCD1B"/>
			<stop  offset="0.8031" style="stop-color:#FFC215"/>
			<stop  offset="0.9055" style="stop-color:#FFB10C"/>
			<stop  offset="0.9928" style="stop-color:#FF9B01"/>
			<stop  offset="1" style="stop-color:#FF9900"/>
		</linearGradient>
		<path fill="url(#SVGID_1_)" d="M164.1,502.5l66.5,38.4c-14.3-8.1-15.4-33.9,0-72.4l130.7-329.2c21.4-54.1,54.6-79.6,79.7-65.1
			l-66.5-38.4c-25-14.5-58.1,11-79.7,65.1L164.1,430C148.8,468.6,150,494.4,164.1,502.5z"/>
		<g>
			<g>
				<g>
					<g>
						<g>
							<path fill="#FDC00F" d="M230.7,468.4c-15.2,38.5-14.1,64.2,0,72.4c9.5,5.4,24.4,3,44.1-8.4L540.6,379
								c49.6-28.6,69.5-80.5,44-115L453.9,85.9c-3.7-5.3-8.1-9.3-12.6-11.8c-25.2-14.6-58.1,11-79.7,65.1L230.7,468.4z"/>
						</g>
					</g>
					<g>
						<g>
							<g>
								<g>
									<path fill="#0F303F" d="M438.2,163.8v103.5c0,19.4-13.8,43.1-30.6,52.8c-16.9,9.8-30.6,2-30.6-17.6V199
										c0-19.4,13.8-43.1,30.6-52.8C424.5,136.4,438.2,144.2,438.2,163.8z"/>
								</g>
							</g>
						</g>
						<g>
							<g>
								<g>
									<path fill="#0F303F" d="M407.7,339.6c-17.4,10.1-31.6,34.5-31.6,54.7c0,20.1,14.1,28.3,31.6,18.2
										c17.4-10.1,31.6-34.5,31.6-54.7C439.3,337.5,425,329.5,407.7,339.6z"/>
								</g>
							</g>
						</g>
					</g>
				</g>
			</g>
		</g>
	</g>
</g>
</svg>
