<?xml version="1.0" encoding="utf-8"?>
<!-- Generator: Adobe Illustrator 18.0.0, SVG Export Plug-In . SVG Version: 6.00 Build 0)  -->
<!DOCTYPE svg PUBLIC "-//W3C//DTD SVG 1.1//EN" "http://www.w3.org/Graphics/SVG/1.1/DTD/svg11.dtd">
<svg version="1.1" id="Layer_1" xmlns="http://www.w3.org/2000/svg" xmlns:xlink="http://www.w3.org/1999/xlink" x="0px" y="0px"
	 viewBox="0 0 512 512" enable-background="new 0 0 512 512" xml:space="preserve">
<g>
	<path fill="#F89A3D" d="M256,0C114.5,0,0,114.5,0,256s114.5,256,256,256s256-114.5,256-256S397.5,0,256,0z M256,488
		C128,488,24,384,24,256S128,24,256,24s232,104,232,232S384,488,256,488z"/>
	<g>
		<path fill="#F89A3D" d="M207.8,235.7L207.8,235.7c1.6,4.6,3.3,8.5,4.9,11.2c11.2,24.3,31.2,31.5,42,31.5c13.1,0,30.2-8.9,42-33.8
			c1.3-1.6,2.3-4.9,3.6-8.5c0.3,0,0.3,0,0.7,0c3.3,0,8.9-3.9,10.8-8.5c1-2.3,1-5.3,0.7-7.9c0-1-0.3-2-0.7-3c-1-2.6-3-4.3-5.3-5.9
			c-0.7-0.3-1-0.7-1.6-1.3c1-12.1,0.7-24.9-2.6-33.1c-7.9-19.4-27.6-29.2-47.9-29.2c-21,0-39.7,10.5-47.9,30.5
			c-3.6,8.9-4.6,20.3-3.6,31.8c-0.3,0.3-1,0.7-1.3,1c-2,1.6-4.3,3.6-5.3,5.9c-0.3,1-0.3,2-0.7,3c-0.3,2.6,0,5.3,0.7,7.9
			C198.2,231.7,202.8,235,207.8,235.7z"/>
		<path fill="#F89A3D" d="M364,379.7c-3.3-20-8.5-53.2-11.8-57.8c-11.2-16.1-27.2-27.9-48.9-32.5v0.3c-1,0-1.6-0.3-2.6-0.3h-16.1
			c-9.2,6.2-27.9,5.6-29.9,5.6s-19,0.3-29.2-5.3h-7.9c-1.3,0-2.3,0.3-3.6,0.3l0,0h-0.3c-0.3,0-0.7,0.3-1,0.3
			c-22,6.2-32.8,15.8-44,31.2c-3.9,5.6-7.9,37.1-11.2,57.8c0,0,10.2,32.8,101.4,32.8S364,379.7,364,379.7z"/>
	</g>
	<g>
		<path fill="#F89A3D" d="M399.8,179.5c0-1-0.3-2-0.7-3c-1-2.6-3-4.3-5.3-5.9c-0.7-0.3-1-0.7-1.6-1.3c1-12.1,0.7-24.9-2.6-33.1
			c-7.9-19.4-27.6-29.2-47.9-29.2c-21,0-39.4,10.5-46.9,27.2c0,0.3,0,0.3,0,0.3c14.8,3.6,26.9,19,33.1,34.1
			c3.3,8.2,3.9,20.7,2.6,33.1c0.7,0.3,1.3,0.7,1.6,1.3c2,1.6,4.3,3.6,5.3,5.9c0.3,1,0.3,2,0.7,3c0.3,2.6,0.3,5.3-0.7,7.9
			c-2,4.6-7.5,8.5-10.8,8.5c-0.3,0-0.3,0-0.7,0c0,0.7,0,1.6,0,2.3c0,1,0,2.3,0,3.3c6.2,3,11.8,3.9,16.1,3.9c13.1,0,30.2-8.9,42-33.8
			c1.3-1.6,2.3-4.9,3.6-8.5c0.3,0,0.3,0,0.7,0c3.3,0,8.9-3.9,10.8-8.5C400.1,184.8,399.8,182.2,399.8,179.5z"/>
		<path fill="#F89A3D" d="M439.5,281.9c-11.2-16.1-27.2-27.9-48.9-32.5v0.3c-1,0-1.6-0.3-2.6-0.3h-16.1c-9.2,6.2-27.9,5.6-29.9,5.6
			c-1.6,0-11.5,0.3-20.3-2c-2,5.6-4.9,10.5-8.2,15.4c0.3,0,0.3,0,0.7,0c29.2,0,54.2,19.4,63,45.6l0.3,0.3c3,4.3,7.9,34.8,11.2,54.8
			c53.2-7.9,62.4-29.9,62.4-29.9C448,319.7,442.7,286.5,439.5,281.9z"/>
	</g>
	<g>
		<path fill="#F89A3D" d="M216.3,133.9C214.3,130.3,216.3,134.2,216.3,133.9C216.3,133.9,216.6,134.2,216.3,133.9
			c-6.2-13.1-25.3-27.6-45.9-27.6c-20.3,0-40,9.5-47.9,29.2c-3.3,8.2-3.9,20.7-2.6,33.1c-0.7,0.3-1.3,0.7-1.6,1.3
			c-2,1.6-4.3,3.6-5.3,5.9c-0.3,1-0.3,2-0.7,3c-0.3,2.6-0.3,5.3,0.7,7.9c2,4.6,7.5,8.5,10.8,8.5c0.3,0,0.3,0,0.7,0
			c1.3,3.9,2.3,6.9,3.6,8.5c12.1,24.9,29.2,33.8,42,33.8c4.3,0,10.2-1.3,16.1-3.9c0-1,0-2.3,0-3.3c0-0.7,0-1.6,0-2.3
			c-0.3,0-0.3,0-0.7,0c-3.3,0-8.9-3.9-10.8-8.5c-0.7-3-0.7-5.6-0.3-8.2c0-1,0.3-2,0.7-3c1-2.6,3-4.3,5.3-5.9c0.7-0.3,1-0.7,1.6-1.3
			c-1-12.1-0.7-24.9,2.6-33.1C190.4,152.9,199.5,140.8,216.3,133.9z"/>
		<path fill="#F89A3D" d="M189.7,253.7c-6.9,1-13.5,1-14.4,1c-2,0-20.7,0.7-29.9-5.6h-16.1c-1,0-1.6,0.3-2.6,0.3v-0.3
			c-21.7,4.6-37.7,16.4-48.9,32.5c-3,4.3-8.5,37.7-11.8,57.8c0,0,9.2,22,62.4,29.9c3.3-20,8.2-50.5,11.2-54.8l0.3-0.3
			c8.5-24.9,31.5-43.7,58.7-45.6C195,263.5,192,258.6,189.7,253.7z"/>
	</g>
</g>
</svg>
