<?xml version="1.0" encoding="utf-8"?>
<!-- Generator: Adobe Illustrator 18.0.0, SVG Export Plug-In . SVG Version: 6.00 Build 0)  -->
<!DOCTYPE svg PUBLIC "-//W3C//DTD SVG 1.1//EN" "http://www.w3.org/Graphics/SVG/1.1/DTD/svg11.dtd">
<svg version="1.1" id="Layer_1" xmlns="http://www.w3.org/2000/svg" xmlns:xlink="http://www.w3.org/1999/xlink" x="0px" y="0px"
	 viewBox="0 0 156 156" enable-background="new 0 0 156 156" xml:space="preserve">
<g>
	<path fill="#FFFFFF" d="M78,0C34.9,0,0,34.9,0,78s34.9,78,78,78s78-34.9,78-78S121.1,0,78,0z M78,148.7C39,148.7,7.3,117,7.3,78
		C7.3,39,39,7.3,78,7.3S148.7,39,148.7,78C148.7,117,117,148.7,78,148.7z"/>
	<g>
		<path fill="#FFFFFF" d="M63.3,71.8C63.3,71.8,63.3,71.8,63.3,71.8c0.5,1.4,1,2.6,1.5,3.4c3.4,7.4,9.5,9.6,12.8,9.6
			c4,0,9.2-2.7,12.8-10.3c0.4-0.5,0.7-1.5,1.1-2.6c0.1,0,0.1,0,0.2,0c1,0,2.7-1.2,3.3-2.6c0.3-0.7,0.3-1.6,0.2-2.4
			c0-0.3-0.1-0.6-0.2-0.9c-0.3-0.8-0.9-1.3-1.6-1.8c-0.2-0.1-0.3-0.2-0.5-0.4c0.3-3.7,0.2-7.6-0.8-10.1c-2.4-5.9-8.4-8.9-14.6-8.9
			c-6.4,0-12.1,3.2-14.6,9.3c-1.1,2.7-1.4,6.2-1.1,9.7c-0.1,0.1-0.3,0.2-0.4,0.3c-0.6,0.5-1.3,1.1-1.6,1.8c-0.1,0.3-0.1,0.6-0.2,0.9
			c-0.1,0.8,0,1.6,0.2,2.4C60.4,70.6,61.8,71.6,63.3,71.8z"/>
		<path fill="#FFFFFF" d="M110.9,115.7c-1-6.1-2.6-16.2-3.6-17.6c-3.4-4.9-8.3-8.5-14.9-9.9c0,0,0,0.1,0,0.1c-0.3,0-0.5-0.1-0.8-0.1
			l-4.9,0c-2.8,1.9-8.5,1.7-9.1,1.7c-0.6,0-5.8,0.1-8.9-1.6l-2.4,0c-0.4,0-0.7,0.1-1.1,0.1c0,0,0,0,0,0c0,0-0.1,0-0.1,0
			c-0.1,0-0.2,0.1-0.3,0.1c-6.7,1.9-10,4.8-13.4,9.5c-1.2,1.7-2.4,11.3-3.4,17.6c0,0,3.1,10,30.9,10S110.9,115.7,110.9,115.7z"/>
	</g>
	<g>
		<path fill="#FFFFFF" d="M121.8,54.7c0-0.3-0.1-0.6-0.2-0.9c-0.3-0.8-0.9-1.3-1.6-1.8c-0.2-0.1-0.3-0.2-0.5-0.4
			c0.3-3.7,0.2-7.6-0.8-10.1c-2.4-5.9-8.4-8.9-14.6-8.9c-6.4,0-12,3.2-14.3,8.3c0,0.1,0,0.1,0,0.1c4.5,1.1,8.2,5.8,10.1,10.4
			c1,2.5,1.2,6.3,0.8,10.1c0.2,0.1,0.4,0.2,0.5,0.4c0.6,0.5,1.3,1.1,1.6,1.8c0.1,0.3,0.1,0.6,0.2,0.9c0.1,0.8,0.1,1.6-0.2,2.4
			c-0.6,1.4-2.3,2.6-3.3,2.6c-0.1,0-0.1,0-0.2,0c0,0.2,0,0.5,0,0.7c0,0.3,0,0.7,0,1c1.9,0.9,3.6,1.2,4.9,1.2c4,0,9.2-2.7,12.8-10.3
			c0.4-0.5,0.7-1.5,1.1-2.6c0.1,0,0.1,0,0.2,0c1,0,2.7-1.2,3.3-2.6C121.9,56.3,121.8,55.5,121.8,54.7z"/>
		<path fill="#FFFFFF" d="M133.9,85.9c-3.4-4.9-8.3-8.5-14.9-9.9c0,0,0,0.1,0,0.1c-0.3,0-0.5-0.1-0.8-0.1l-4.9,0
			c-2.8,1.9-8.5,1.7-9.1,1.7c-0.5,0-3.5,0.1-6.2-0.6c-0.6,1.7-1.5,3.2-2.5,4.7c0.1,0,0.1,0,0.2,0c8.9,0,16.5,5.9,19.2,13.9
			c0,0,0.1,0.1,0.1,0.1c0.9,1.3,2.4,10.6,3.4,16.7c16.2-2.4,19-9.1,19-9.1C136.5,97.4,134.9,87.3,133.9,85.9z"/>
	</g>
	<g>
		<path fill="#FFFFFF" d="M65.9,40.8C65.3,39.7,65.9,40.9,65.9,40.8C65.9,40.8,66,40.9,65.9,40.8c-1.9-4-7.7-8.4-14-8.4
			c-6.2,0-12.2,2.9-14.6,8.9c-1,2.5-1.2,6.3-0.8,10.1c-0.2,0.1-0.4,0.2-0.5,0.4c-0.6,0.5-1.3,1.1-1.6,1.8c-0.1,0.3-0.1,0.6-0.2,0.9
			c-0.1,0.8-0.1,1.6,0.2,2.4c0.6,1.4,2.3,2.6,3.3,2.6c0.1,0,0.1,0,0.2,0c0.4,1.2,0.7,2.1,1.1,2.6c3.7,7.6,8.9,10.3,12.8,10.3
			c1.3,0,3.1-0.4,4.9-1.2c0-0.3,0-0.7,0-1c0-0.2,0-0.5,0-0.7c-0.1,0-0.1,0-0.2,0c-1,0-2.7-1.2-3.3-2.6C53,66,53,65.2,53.1,64.4
			c0-0.3,0.1-0.6,0.2-0.9c0.3-0.8,0.9-1.3,1.6-1.8c0.2-0.1,0.3-0.2,0.5-0.4c-0.3-3.7-0.2-7.6,0.8-10.1C58,46.6,60.8,42.9,65.9,40.8z
			"/>
		<path fill="#FFFFFF" d="M57.8,77.3c-2.1,0.3-4.1,0.3-4.4,0.3c-0.6,0-6.3,0.2-9.1-1.7l-4.9,0c-0.3,0-0.5,0.1-0.8,0.1
			c0,0,0-0.1,0-0.1c-6.6,1.4-11.5,5-14.9,9.9c-0.9,1.3-2.6,11.5-3.6,17.6c0,0,2.8,6.7,19,9.1c1-6.1,2.5-15.4,3.4-16.7
			c0,0,0.1-0.1,0.1-0.1c2.6-7.6,9.6-13.3,17.9-13.9C59.4,80.3,58.5,78.8,57.8,77.3z"/>
	</g>
</g>
</svg>
