<?xml version="1.0" encoding="utf-8"?>
<!-- Generator: Adobe Illustrator 18.0.0, SVG Export Plug-In . SVG Version: 6.00 Build 0)  -->
<!DOCTYPE svg PUBLIC "-//W3C//DTD SVG 1.1//EN" "http://www.w3.org/Graphics/SVG/1.1/DTD/svg11.dtd">
<svg version="1.1" id="Layer_1" xmlns="http://www.w3.org/2000/svg" xmlns:xlink="http://www.w3.org/1999/xlink" x="0px" y="0px"
	 viewBox="0 0 330.5 493" enable-background="new 0 0 330.5 493" xml:space="preserve">
<g>
	<g>
		<g>
			<g enable-background="new    ">
				<g>
					<path fill="#474747" d="M170.9,204.9c4.3-2.5,8.6-5,13-7.5c-10.3,6-16.7,18.7-16.7,36.7c-0.1,36.2,25.5,80.6,57,98.8l-13,7.5
						c-31.5-18.2-57.1-62.5-57-98.8C154.3,223.6,160.6,210.9,170.9,204.9z"/>
				</g>
				<g>
					<path fill="#474747" d="M264.9,336.8c-4.3,2.5-8.6,5-13,7.5c-10.4,6.1-24.8,5.2-40.7-4l13-7.5
						C240.1,342,254.5,342.8,264.9,336.8z"/>
				</g>
				<polygon fill="#333333" points="219.4,205.9 219.2,266 238.3,221 239.8,222.5 220.5,267.9 257.9,246.6 259.1,248.5 222,269.7 
					269.9,273.2 270.5,275.2 222.2,271.7 274.9,302.1 274.9,304 222.6,273.8 271.3,323.7 270.7,325.1 221.6,274.7 258.8,339.1 
					257.7,339.8 220.8,275.9 241.7,343.1 240.2,343 219.2,275.2 219,335.8 217.4,334.9 217.6,274.8 198.4,319.9 196.9,318.3 
					216.3,272.9 178.8,294.2 177.7,292.3 214.8,271.2 166.9,267.7 166.2,265.6 214.6,269.1 161.9,238.7 161.9,236.9 214.2,267.1 
					165.5,217.1 166.1,215.7 215.1,266.1 178,201.7 179.1,201.1 216,264.9 195.1,197.7 196.6,197.9 217.6,265.6 217.8,205 				"/>
				<g>
					<path fill="#474747" d="M205,263.6l13-7.5c1.6-1,3.9-0.8,6.4,0.6l-13,7.5C208.9,262.8,206.7,262.6,205,263.6z"/>
				</g>
				<g>
					<path fill="#474747" d="M230.8,278.1l-13,7.5c1.6-0.9,2.6-2.9,2.6-5.8c0-5.7-4-12.8-9-15.7l13-7.5c5,2.9,9.1,9.9,9,15.7
						C233.4,275.2,232.4,277.2,230.8,278.1z"/>
				</g>
				<g>
					<path fill="#474747" d="M160.5,187c4.3-2.5,8.6-5,13-7.5c13.1-7.6,31.2-6.5,51.2,5l-13,7.5C191.7,180.5,173.6,179.4,160.5,187z
						"/>
				</g>
				<g>
					<path fill="#474747" d="M275.3,354.7c-4.3,2.5-8.6,5-13,7.5c12.9-7.5,20.9-23.5,21-46.1c0.1-45.6-32-101.3-71.7-124.2l13-7.5
						c39.7,22.9,71.8,78.6,71.7,124.2C296.2,331.3,288.2,347.2,275.3,354.7z"/>
				</g>
				<g>
					<path fill="#333333" d="M211.7,192c39.7,22.9,71.8,78.6,71.7,124.2c-0.1,45.6-32.5,64-72.2,41.1
						c-39.7-22.9-71.8-78.6-71.7-124.2C139.6,187.5,172,169.1,211.7,192z M211.2,340.4c31.5,18.2,57.3,3.5,57.4-32.7
						c0.1-36.2-25.5-80.6-57-98.8c-31.5-18.2-57.3-3.5-57.4,32.7C154.1,277.9,179.7,322.2,211.2,340.4L211.2,340.4z"/>
				</g>
				<g>
					<path fill="#333333" d="M211.5,264.2c5,2.9,9.1,9.9,9,15.7c0,5.7-4.1,8.1-9.1,5.2c-5-2.9-9-9.9-9-15.6
						C202.4,263.7,206.5,261.3,211.5,264.2z"/>
				</g>
			</g>
		</g>
		<g>
			<g enable-background="new    ">
				<g>
					<path fill="#896D63" d="M292.7,357.8c0.5,0,1-0.1,1.4-0.4l-13,7.5c-0.4,0.2-0.8,0.3-1.3,0.4C283.6,363,288.3,358.9,292.7,357.8
						z"/>
				</g>
				<g>
					<path fill="#FFFFFF" d="M210.1,216.1c2.9,5.4,6.5,10.5,10.6,14.9l-13,7.5c-4-4.4-7.6-9.5-10.6-14.9
						C201,221.3,206.2,218.3,210.1,216.1z"/>
				</g>
				<g>
					<path fill="#FFFFFF" d="M197.1,223.6c2.9,5.4,6.5,10.5,10.6,14.9l-0.1,53.1l-10.6-6.1L197.1,223.6z"/>
				</g>
				<g>
					<polygon fill="#FFFFFF" points="207.7,238.5 220.6,231 220.5,284.1 207.5,291.6 					"/>
				</g>
				<g>
					<path fill="#FFFFFF" d="M294,357.4c-4.3,2.5-8.6,5-13,7.5c0.9-0.6,1.5-1.7,1.5-3.4l13-7.5C295.6,355.7,295,356.9,294,357.4z"/>
				</g>
				<g>
					<polygon fill="#FFFFFF" points="282.6,357.8 295.6,350.3 295.6,354 282.6,361.6 					"/>
				</g>
				<g>
					<path fill="#474747" d="M283.7,377.2c4.3-2.5,8.6-5,13-7.5c2.4-1.4,5.4-1.7,8.8-0.9c1.7,0.4,3.5,1.2,5.3,2.2l-13,7.5
						c-1.8-1.1-3.6-1.8-5.3-2.2C289.2,375.4,286.1,375.8,283.7,377.2z"/>
				</g>
				<g>
					<path fill="#474747" d="M324.7,417.8c-4.3,2.5-8.6,5-13,7.5c3.6-2.1,5.8-6.5,5.8-12.7c0-10.4-6.1-22.8-14.4-30.3
						c-1.7-1.5-3.5-2.8-5.3-3.9l13-7.5c1.8,1.1,3.6,2.4,5.3,3.9c8.3,7.5,14.4,19.8,14.4,30.3C330.5,411.4,328.3,415.8,324.7,417.8z"
						/>
				</g>
				<g>
					<path fill="#EDEDED" d="M199.4,200.5l13-7.5c0,13.3,9.4,29.6,20.9,36.3l-13,7.5C208.8,230.1,199.4,213.8,199.4,200.5z"/>
				</g>
				<g>
					<path fill="#333333" d="M297.8,378.5c1.8,1.1,3.6,2.4,5.3,3.9c8.3,7.5,14.4,19.8,14.4,30.3c0,12.5-8.9,17.6-19.8,11.3
						c-10.9-6.3-19.8-21.6-19.7-34.2c0-10.4,6.2-15.7,14.6-13.5C294.2,376.7,296,377.5,297.8,378.5z"/>
				</g>
				<g>
					<path fill="#EDEDED" d="M297.8,389.5c0.9,0.5,1.9,1.2,2.7,2c4.3,3.9,7.5,10.2,7.4,15.6c0,6.5-4.6,9.1-10.2,5.8
						c-5.6-3.3-10.2-11.2-10.2-17.6c0-5.4,3.2-8.1,7.5-7C295.9,388.6,296.8,389,297.8,389.5z"/>
				</g>
				<g>
					<polygon fill="#EDEDED" points="199.5,180.4 212.4,172.8 212.4,193 199.4,200.5 					"/>
				</g>
				<g>
					<polygon fill="#FFFFFF" points="199.5,168.2 212.5,160.6 212.4,172.8 199.5,180.4 					"/>
				</g>
				<g>
					<polygon fill="#EDEDED" points="282.8,303 295.7,295.5 295.6,350.3 282.6,357.8 					"/>
				</g>
				<g>
					<polygon fill="#FFFFFF" points="220.4,236.8 233.3,229.3 269.5,250.2 256.6,257.7 					"/>
				</g>
				<g>
					<path fill="#EDEDED" d="M256.6,257.7l13-7.5c14.5,8.4,26.2,28.7,26.2,45.4l-13,7.5C282.8,286.4,271.1,266.1,256.6,257.7z"/>
				</g>
				<g>
					<polygon fill="#CECECE" points="230.3,185.9 230.2,198.1 199.5,180.4 199.5,168.2 					"/>
				</g>
				<g>
					<polygon fill="#EDEDED" points="199.5,168.2 212.5,160.6 243.2,178.4 230.3,185.9 					"/>
				</g>
				<g>
					<polygon fill="#FFFFFF" points="230.3,185.9 243.2,178.4 243.2,190.6 230.2,198.1 					"/>
				</g>
				<g>
					<polygon fill="#896D63" points="174.2,86.6 187.2,79.1 187.1,81.4 174.2,88.9 					"/>
				</g>
				<g>
					<polygon fill="#896D63" points="174.2,74.6 187.2,67 187.2,79.1 174.2,86.6 					"/>
				</g>
				<g>
					<polygon fill="#896D63" points="174.2,72.1 187.2,64.5 187.2,67 174.2,74.6 					"/>
				</g>
				<g>
					<polygon fill="#7A5D54" points="174.2,72.1 174.2,74.6 174.2,86.6 174.2,88.9 135.4,66.5 135.5,49.7 					"/>
				</g>
				<g>
					<polygon fill="#896D63" points="135.5,49.7 148.4,42.2 187.2,64.5 174.2,72.1 					"/>
				</g>
				<g>
					<polygon fill="#FFFFFF" points="199.7,113.4 212.6,105.9 212.5,160.6 199.5,168.2 					"/>
				</g>
				<g>
					<polygon fill="#EDEDED" points="174.2,74.6 187.2,67 191.7,69.6 178.7,77.1 					"/>
				</g>
				<g>
					<path fill="#CECECE" d="M178.7,77.1c11.6,6.7,21,23,20.9,36.3l-0.2,54.7l0,12.2l-0.1,20.1c0,13.3,9.4,29.6,20.9,36.3l36.2,20.9
						c14.5,8.4,26.2,28.7,26.2,45.4l-0.2,54.8l0,3.7c0,2.3-1.2,3.7-2.9,3.7c-0.7,0-1.5-0.2-2.4-0.7c-2.9-1.7-5.3-5.7-5.2-9.1
						l0.2-58.5c0-10-7-22.2-15.7-27.2l-36.2-20.9c-4.5-2.6-8.8-6.2-12.7-10.4c-4-4.4-7.6-9.5-10.6-14.9c-5.1-9.4-8.2-19.8-8.2-29.2
						l0.2-87.1c0-6.7-4.7-14.8-10.5-18.1l-4.5-2.6l0-12.1L178.7,77.1z"/>
				</g>
				<g>
					<path fill="#EDEDED" d="M178.7,77.1l13-7.5c11.6,6.7,21,23,20.9,36.3l-13,7.5C199.7,100.1,190.3,83.8,178.7,77.1z"/>
				</g>
				<g>
					<polygon fill="#7A5D54" points="311.4,229.9 311.4,247.9 230.2,201 230.2,198.1 230.3,185.9 230.3,183.1 					"/>
				</g>
				<g>
					<polygon fill="#896D63" points="311.4,229.9 324.4,222.4 324.4,240.3 311.4,247.9 					"/>
				</g>
				<g>
					<polygon fill="#896D63" points="230.3,183.1 243.2,175.5 324.4,222.4 311.4,229.9 					"/>
				</g>
			</g>
		</g>
		<g>
			<g enable-background="new    ">
				<g>
					<path fill="#896D63" d="M176.2,424c0.5,0,1-0.1,1.4-0.4l-13,7.5c-0.4,0.2-0.8,0.3-1.3,0.4C167.1,429.3,171.8,425.2,176.2,424z"
						/>
				</g>
				<g>
					<path fill="#FFFFFF" d="M93.5,282.3c2.9,5.4,6.5,10.5,10.6,14.9l-13,7.5c-4-4.4-7.6-9.5-10.6-14.9
						C84.5,287.6,89.7,284.6,93.5,282.3z"/>
				</g>
				<g>
					<path fill="#CECECE" d="M80.6,289.9c2.9,5.4,6.5,10.5,10.6,14.9L91,357.9l-10.6-6.1L80.6,289.9z"/>
				</g>
				<g>
					<polygon fill="#EDEDED" points="91.2,304.7 104.1,297.2 104,350.3 91,357.9 					"/>
				</g>
				<g>
					<path fill="#FFFFFF" d="M177.5,423.7c-4.3,2.5-8.6,5-13,7.5c0.9-0.6,1.5-1.7,1.5-3.4l13-7.5C179,421.9,178.5,423.1,177.5,423.7
						z"/>
				</g>
				<g>
					<polygon fill="#FFFFFF" points="166.1,424.1 179.1,416.5 179,420.3 166.1,427.8 					"/>
				</g>
				<g>
					<path fill="#474747" d="M167.2,443.4c4.3-2.5,8.6-5,13-7.5c2.4-1.4,5.4-1.7,8.8-0.9c1.7,0.4,3.5,1.2,5.3,2.2l-13,7.5
						c-1.8-1.1-3.6-1.8-5.3-2.2C172.7,441.7,169.6,442,167.2,443.4z"/>
				</g>
				<g>
					<path fill="#474747" d="M208.2,484.1c-4.3,2.5-8.6,5-13,7.5c3.6-2.1,5.8-6.4,5.8-12.7c0-10.4-6.1-22.8-14.4-30.3
						c-1.7-1.5-3.5-2.8-5.3-3.9l13-7.5c1.8,1.1,3.6,2.4,5.3,3.9c8.3,7.5,14.5,19.8,14.4,30.3C214,477.6,211.8,482,208.2,484.1z"/>
				</g>
				<g>
					<path fill="#EDEDED" d="M82.9,266.8l13-7.5c0,13.3,9.4,29.6,20.9,36.3l-13,7.5C92.3,296.4,82.9,280.1,82.9,266.8z"/>
				</g>
				<g>
					<path fill="#333333" d="M181.3,444.8c1.8,1.1,3.6,2.4,5.3,3.9c8.3,7.5,14.4,19.8,14.4,30.3c0,12.5-8.9,17.6-19.8,11.3
						c-10.9-6.3-19.8-21.6-19.7-34.2c0-10.4,6.2-15.7,14.6-13.5C177.7,443,179.5,443.7,181.3,444.8z"/>
				</g>
				<g>
					<path fill="#EDEDED" d="M181.3,455.8c0.9,0.5,1.9,1.2,2.7,2c4.3,3.9,7.5,10.2,7.4,15.6c0,6.5-4.6,9.1-10.2,5.8
						c-5.6-3.2-10.2-11.2-10.2-17.6c0-5.4,3.2-8.1,7.5-7C179.4,454.9,180.3,455.2,181.3,455.8z"/>
				</g>
				<g>
					<polygon fill="#EDEDED" points="83,246.6 95.9,239.1 95.9,259.2 82.9,266.8 					"/>
				</g>
				<g>
					<path fill="#7A5D54" d="M199.5,443.3l0,10.3l-12.8-7.4l-10.6-6.1l-12.8-7.4l0-1.2c1.7,0,2.9-1.4,2.9-3.7l0-3.7L199.5,443.3z"/>
				</g>
				<polygon fill="#6D5148" points="199.5,443.3 199.4,453.7 328.9,379.9 328.9,369.5 				"/>
				<polygon fill="#896D63" points="328.9,369.5 295.6,350.3 179.1,416.5 166.1,424.1 199.5,443.3 				"/>
				<g>
					<polygon fill="#EDEDED" points="83,234.4 96,226.9 95.9,239.1 83,246.6 					"/>
				</g>
				<g>
					<polygon fill="#EDEDED" points="166.3,369.3 179.2,361.8 179.1,416.5 166.1,424.1 					"/>
				</g>
				<g>
					<polygon fill="#EDEDED" points="103.9,303 116.8,295.5 153,316.4 140.1,323.9 					"/>
				</g>
				<g>
					<path fill="#EDEDED" d="M140.1,323.9l13-7.5c14.5,8.4,26.2,28.7,26.2,45.4l-13,7.5C166.3,352.6,154.6,332.3,140.1,323.9z"/>
				</g>
				<g>
					<g enable-background="new    ">
						<g>
							<path fill="#D93E1F" d="M99.1,268.9c38.4-22.3,76.8-44.6,115.2-67c1.9-1.1,4.6-1,7.6,0.7l-115.2,67
								C103.7,268,101,267.8,99.1,268.9z"/>
						</g>
						<g>
							<g>
								<polygon fill="#D93E1F" points="106.7,269.7 221.9,202.7 298.7,247.1 183.5,314 								"/>
							</g>
						</g>
						<g>
							<path fill="#C41C00" d="M183.5,314c5.9,3.4,10.7,11.7,10.6,18.5c0,6.8-4.8,9.5-10.7,6.1l-76.8-44.3
								c-5.9-3.4-10.7-11.7-10.7-18.5c0-6.8,4.8-9.5,10.7-6.1L183.5,314z"/>
						</g>
						<g>
							<g>
								<path fill="#D93E1F" d="M306.2,272.4c-38.4,22.3-76.8,44.6-115.2,67c1.9-1.1,3.1-3.5,3.1-6.9c0-6.8-4.7-15.1-10.6-18.5
									l115.2-67c5.9,3.4,10.7,11.7,10.7,18.5C309.3,268.9,308.1,271.3,306.2,272.4z"/>
							</g>
						</g>
					</g>
				</g>
				<g>
					<polygon fill="#896D63" points="57.7,152.9 70.6,145.4 70.6,147.6 57.7,155.2 					"/>
				</g>
				<g>
					<polygon fill="#896D63" points="57.7,140.8 70.7,133.3 70.6,145.4 57.7,152.9 					"/>
				</g>
				<g>
					<polygon fill="#896D63" points="57.7,138.3 70.7,130.8 70.7,133.3 57.7,140.8 					"/>
				</g>
				<g>
					<path fill="#896D63" d="M25.3,109.3c-0.9,0.5-1.8,1.2-2.6,1.9c-4.1,3.7-7.2,9.9-7.2,15.1c0,6.2,4.4,8.8,9.9,5.6
						c5.4-3.1,9.8-10.8,9.8-17c0-5.2-3.1-7.8-7.2-6.7C27.1,108.4,26.2,108.8,25.3,109.3z"/>
				</g>
				<g>
					<path fill="#7A5D54" d="M57.7,138.3l0,2.5l0,12.1l0,2.3l-38.8-22.4c0,0-3.4-0.7-3.4-7.1c0-5.1,3.5-9.8,3.5-9.8L57.7,138.3z"/>
				</g>
				<g>
					<polygon fill="#896D63" points="19,115.9 31.9,108.4 70.7,130.8 57.7,138.3 					"/>
				</g>
				<g>
					<polygon fill="#FFFFFF" points="83.2,179.7 96.1,172.2 96,226.9 83,234.4 					"/>
				</g>
				<g>
					<polygon fill="#EDEDED" points="57.7,140.8 70.7,133.3 75.2,135.9 62.2,143.4 					"/>
				</g>
				<g>
					<path fill="#CECECE" d="M62.2,143.4c11.6,6.7,21,23,20.9,36.3L83,234.4l0,12.2l-0.1,20.1c0,13.3,9.4,29.6,20.9,36.3l36.2,20.9
						c14.5,8.4,26.2,28.7,26.2,45.4l-0.2,54.8l0,3.7c0,2.3-1.2,3.7-2.9,3.7c-0.7,0-1.5-0.2-2.4-0.7c-2.9-1.7-5.2-5.7-5.2-9.1
						l0.2-58.5c0-10-7-22.2-15.7-27.2l-36.2-20.9c-4.5-2.6-8.8-6.2-12.7-10.4c-4-4.4-7.6-9.5-10.6-14.9c-5.1-9.4-8.2-19.8-8.2-29.2
						l0.2-87.1c0-6.7-4.7-14.8-10.5-18.1l-4.5-2.6l0-12.1L62.2,143.4z"/>
				</g>
				<g>
					<path fill="#EDEDED" d="M62.2,143.4l13-7.5c11.6,6.7,21,23,20.9,36.3l-13,7.5C83.2,166.4,73.8,150.1,62.2,143.4z"/>
				</g>
			</g>
		</g>
		<g>
			<g enable-background="new    ">
				<g>
					<path fill="#474747" d="M31.4,285.1c4.3-2.5,8.6-5,13-7.5c-10.3,6-16.7,18.7-16.7,36.7c-0.1,36.3,25.5,80.6,57,98.8l-13,7.5
						c-31.5-18.2-57.1-62.5-57-98.8C14.8,303.7,21.1,291.1,31.4,285.1z"/>
				</g>
				<g>
					<path fill="#474747" d="M125.4,416.9c-4.3,2.5-8.6,5-13,7.5c-10.4,6-24.8,5.2-40.7-4l13-7.5C100.6,422.1,115,423,125.4,416.9z"
						/>
				</g>
				<polygon fill="#333333" points="79.9,286 79.7,346.1 98.8,301.1 100.3,302.6 81,348 118.4,326.7 119.6,328.7 82.5,349.8 
					130.4,353.3 131,355.3 82.7,351.8 135.4,382.3 135.4,384.1 83.1,353.9 131.8,403.9 131.2,405.2 82.1,354.9 119.3,419.2 
					118.2,419.9 81.3,356 102.2,423.2 100.7,423.1 79.7,355.4 79.5,416 77.9,415 78.1,355 58.9,400 57.4,398.5 76.8,353.1 
					39.3,374.4 38.2,372.4 75.3,351.3 27.4,347.8 26.7,345.8 75.1,349.3 22.4,318.8 22.4,317 74.7,347.2 26,297.2 26.6,295.9 
					75.6,346.2 38.5,281.8 39.6,281.2 76.5,345.1 55.6,277.9 57.1,278 78.1,345.7 78.3,285.1 				"/>
				<g>
					<path fill="#474747" d="M65.5,343.7l13-7.5c1.6-1,3.9-0.8,6.4,0.6l-13,7.5C69.4,342.9,67.2,342.8,65.5,343.7z"/>
				</g>
				<g>
					<path fill="#474747" d="M91.3,358.3l-13,7.5c1.6-0.9,2.6-2.9,2.6-5.8c0-5.7-4-12.8-9-15.7l13-7.5c5,2.9,9.1,9.9,9,15.7
						C93.9,355.3,92.9,357.3,91.3,358.3z"/>
				</g>
				<g>
					<path fill="#474747" d="M21,267.2c4.3-2.5,8.6-5,13-7.5c13.1-7.6,31.2-6.6,51.2,5l-13,7.5C52.2,260.6,34.1,259.5,21,267.2z"/>
				</g>
				<g>
					<path fill="#474747" d="M135.8,434.9c-4.3,2.5-8.6,5-13,7.5c12.9-7.5,20.9-23.5,21-46.1c0.1-45.6-32-101.3-71.7-124.2l13-7.5
						c39.7,22.9,71.8,78.6,71.7,124.2C156.7,411.4,148.7,427.3,135.8,434.9z"/>
				</g>
				<g>
					<path fill="#333333" d="M72.2,272.1c39.7,22.9,71.8,78.6,71.7,124.2c-0.1,45.6-32.5,64-72.2,41.1C32,414.5-0.1,358.8,0,313.2
						C0.1,267.7,32.5,249.2,72.2,272.1z M71.7,420.5c31.5,18.2,57.3,3.5,57.4-32.7c0.1-36.2-25.5-80.6-57-98.8
						c-31.5-18.2-57.3-3.5-57.4,32.7C14.6,358,40.2,402.3,71.7,420.5L71.7,420.5z"/>
				</g>
				<g>
					<path fill="#333333" d="M72,344.3c5,2.9,9.1,9.9,9,15.7c0,5.7-4.1,8.1-9.1,5.2c-5-2.9-9-9.9-9-15.6
						C62.9,343.8,67,341.5,72,344.3z"/>
				</g>
			</g>
		</g>
		<g>
			<g enable-background="new    ">
				<g>
					<path fill="#D93E1F" d="M220,166.1c-30.3,17.6-92,53.6-122.3,71.2c1.5-0.9,2.5-2.8,2.5-5.4l122.3-71.2
						C222.4,163.3,221.5,165.2,220,166.1z"/>
				</g>
				<g>
					<g>
						<polygon fill="#D93E1F" points="100.3,162.3 222.6,91.1 222.4,160.7 100.1,231.9 						"/>
					</g>
				</g>
				<g>
					<path fill="#D93E1F" d="M85.9,147.1c30.3-17.6,92-53.6,122.3-71.2c1.5-0.9,3.7-0.8,6,0.6L91.9,147.7
						C89.5,146.4,87.4,146.2,85.9,147.1z"/>
				</g>
				<g>
					<g>
						<path fill="#D93E1F" d="M91.9,147.7l122.3-71.2c4.7,2.7,8.4,9.2,8.4,14.6l-122.3,71.2C100.3,156.9,96.5,150.4,91.9,147.7z"/>
					</g>
				</g>
				<g>
					<path fill="#896D63" d="M91.9,147.7c4.7,2.7,8.4,9.2,8.4,14.6l-0.2,69.6c0,5.4-3.8,7.5-8.5,4.8c-4.7-2.7-8.4-9.2-8.4-14.6
						l0.2-69.6C83.4,147.2,87.2,145,91.9,147.7z"/>
				</g>
			</g>
		</g>
		<g>
			<path fill="#896D63" d="M141.8,43.1c-0.9,0.5-1.8,1.2-2.6,1.9c-4.1,3.7-7.2,9.9-7.2,15.1c0,6.2,4.4,8.8,9.9,5.6
				c5.4-3.1,9.8-10.8,9.8-17c0-5.2-3.1-7.8-7.2-6.7C143.6,42.2,142.7,42.5,141.8,43.1z"/>
		</g>
		<g>
			<path fill="#7A5D54" d="M174.2,72.1l0,2.5l0,12.1l0,2.3l-38.8-22.4c0,0-3.4-0.7-3.4-7.1c0-5.1,3.5-9.8,3.5-9.8L174.2,72.1z"/>
		</g>
	</g>
	<g>
		<path fill="#C2E6E4" d="M265.8,354.7c0,0-19.3,17.6-19.1,23.3c0.3,7.3,17.8,12.4,30.6,19.9c12.4,7.2,16.4,4,18.2,3.1
			C323.1,386.4,270.5,374.7,265.8,354.7z"/>
		<path fill="#C2E6E4" d="M225.9,378.4c0,0-19.3,17.5-19.1,23.2c0.3,7.3,17.8,12.5,30.6,19.9c12.4,7.3,16.4,4,18.2,3.1
			C283.2,410.1,230.6,398.4,225.9,378.4z"/>
		<g>
			<g>
				<g>
					<g>
						<g>
							<g>
								<g>
									<g>
										<g enable-background="new    ">
											<path fill="#6EC4BB" d="M167.4,209.2c-19.1,61,71.8,58.2,75.8,71c3.6,11.4-1.7,65.4,1.6,88.9c0,0,2.4,11.5,22,8.5
												c11.4-39.5,22.8-96.7,7.4-120.8c-23.7-37.2-88.1-29.7-83.5-58.7C182.9,196.8,175.1,210.4,167.4,209.2z"/>
											<path fill="#91E7DE" d="M190.6,198c-5.6,35.9,43.5,35.6,71.6,60.4c10.5,9.3,0,91,4.5,119.1c18.4-3,15.6-15,15.6-15
												c-3.8-27.1,11.7-100.8-2.6-114.4c-7.6-7.2-67.3-35-65.6-46.3C206.3,200.5,198.5,199.3,190.6,198z"/>
										</g>
									</g>
								</g>
								<g>
									<g>
										<g enable-background="new    ">
											<path fill="#6EC4BB" d="M128,219.4c-19.1,61,71.8,73.1,75.8,85.8c3.6,11.4-1.7,65.4,1.5,88.8c0,0,2.4,11.6,22,8.5
												c2.2-34.9,22.8-96.7,7.4-120.8c-23.7-37.2-88.1-29.7-83.5-58.7C143.5,221.8,135.8,220.6,128,219.4z"/>
											<path fill="#91E7DE" d="M151.3,223.1c-5.6,35.8,38.1,36,66.1,60.8c10.5,9.3,5.5,90.6,10,118.7c18.4-3,15.6-15,15.6-15
												c-3.8-27.2,11.7-100.9-2.6-114.4c-7.7-7.2-67.3-35-65.6-46.3C166.9,225.5,159.1,224.3,151.3,223.1z"/>
										</g>
									</g>
								</g>
								<g>
									<g>
										<g>
											<path fill="#6EC4BB" d="M146.5,246.8c0,0-17.8,0.6-24.1-11.9c-5.4-10.6,3.5-19.5,2.9-40.9c-0.4-14.9,3.4-22.2-10.8-50.3
												c-2.9-5.8,61.5,9.9,61.5,9.9L146.5,246.8z"/>
										</g>
										<path fill="#6EC4BB" d="M150.5,224.7c7.3,1.1,14.6,2.3,22,3.5c-0.7,4.5-1.4,9.2-2,13.9c-10.7,3.7-19.9,4.5-24,4.6
											C147.3,239.2,149.4,231.8,150.5,224.7z"/>
										<path fill="#6EC4BB" d="M187.2,234.8c1.1-11.5,3.1-23.2,4.8-33.6c7.3,1.2,15,1.1,22.4,2.3c0,0,1.1,3,4.8,6.3
											c-3.8,4.9-16.5,15.8-25.9,21.5C191.5,232.4,188.9,233.9,187.2,234.8z"/>
										<path fill="#6EC4BB" d="M220.2,218c-1.5,3.6-0.3,4.5,5.9,7.7c0,0,15.1-1.6,7.7-12.3C233.9,213.5,225.1,206.5,220.2,218z"
											/>
										<g>
											<path fill="#6EC4BB" d="M197.6,84.9c2.2-1.2,5.1-0.8,8,0.9c2.9,1.7,6.8,4.3,8.1,8.6c5.3,17.2,4.3,54.8,10.6,71.3
												c5.4,14,11.6,49.1,11.6,49.1s-2.5-3.5-10.3,2.1c-2.5,1.8-4.1,7.7-4.1,7.7s-17.6-26.5-18.8-44.5
												c-2.1-32.7-5.7-54.5-13.5-72.2C182,91.5,197.6,84.9,197.6,84.9z"/>
										</g>
										<path fill="#C2E6E4" d="M152.9,95.5c12.1-7.5,33.3-11.7,39.9-13.3c11.7-2.8,16.3,1.4,20.3,7.1l-5.9,52l7.4,59.8
											c0,0-0.4,14.6-21.4,27.2c-28.7,17.4-42.7,15.5-42.7,15.5c0.6-36.9,5.1-51.6-6-76c-4.6-10.2-29-34.6-29-34.6
											C123.6,110.6,141.5,102.5,152.9,95.5z"/>
										<path fill="#C2E6E4" d="M213.1,89.4c8,16.5,1,86.8,0.8,109.1c0,0-1.9,6.8-7.4,8c0,0-40.9-41.2-50.1-56.2
											C147.2,135.2,213.1,89.4,213.1,89.4z"/>
										<path fill="#FFFFFF" d="M152.5,89.5l-4.6,7.7c0,0,13.3,2,34.8,23.6l4.5-11.5l10.7,3.3c0,0,0.4-15.5-12.2-21
											C173.1,86,152.5,89.5,152.5,89.5z"/>
										<path fill="#F6CCB5" d="M151.3,75.8c0,0,3,12.5,1.7,16.5c0,0,23.7,10.3,30,11.3c4.4,0.7,4.1-11.4,4.1-11.4L151.3,75.8z"/>
										<path fill="#F6CCB5" d="M137.9,40.5C137.9,40.5,137.9,40.5,137.9,40.5L137.9,40.5c-0.5-6-1.7-18,9.3-27.3
											c13.8-11.8,32.8-10.6,51.5,1.1c11.8,7.3,15.7,21.8,16.2,27.8c1.2,12.6,1,5.9,1.4,13.7c1.7,33.4-18.8,51.7-41.2,39.8
											c-9.4-5-19.7-14.3-19.7-14.3c-6.7,0-12.4-7.5-13-11.9c-1-6.9-1.9-7.8-4.3-27.5C138,41.5,137.9,41,137.9,40.5z"/>
									</g>
								</g>
							</g>
						</g>
					</g>
				</g>
			</g>
			<path fill="#F6CCB5" d="M220.5,219.7c-0.5-0.9-1.7-1.9,1.3-4.6c0.1-0.1,0.2-0.2,0.4-0.3c4.1-2.4,13.6-1.8,21,3.2
				c8.4,5,16.2,18.6,11.9,19.9c-3.9,0.8-17.8-7.8-25.6-11.1c-0.1,0-0.2-0.1-0.3-0.1c0.4,0.6,0.8,1.1,1.1,1.4c3.7,3,7.2,5.4,5.8,6.2
				c0,0-0.1,0-0.1,0.1c-1.7,0.7-5.6-1.3-9.4-4.1C223.1,227.4,220.7,221,220.5,219.7z"/>
		</g>
		<g>
			<path fill="#6EC4BB" d="M152,201.2c-12.1-12.8-14.8-58.5-14.8-58.5c-2.2-3.9-5.1-14.3-8.1-16l-14.6,17c0,0,2.2,76,16.9,89.7
				c10.6,9.8,44.6,23.9,44.6,23.9s-5.4-11.2-1.3-17.3c5.8-8.6,12-3.8,12-3.8S161.3,211,152,201.2z"/>
			<path fill="#6EC4BB" d="M167.4,246.8c-2.3,5.3,8.6,10.5,8.6,10.5s19.3-5.7,11.9-16.3C187.9,241,174.4,231.2,167.4,246.8z"/>
			<path fill="#F6CCB5" d="M170.2,245.1c0.1-0.1,0.2-0.2,0.3-0.3c3-2.7,5.1-2.5,6.9-2.6c2-0.6,14.2-0.6,19.9,2.7
				c5.7,3.1,8.7,6.9,7.3,7.7c0,0-0.1,0-0.1,0.1c-1.5,0.6-4.8-2.8-10.2-5.5c-0.5-0.3-1.4-0.6-2.4-0.8c0.1,0.1,0.2,0.1,0.3,0.2
				c8.1,4.8,15.5,18,11.3,19.4c-3.8,0.9-17.2-7.2-24.7-10.4C172.1,252.1,168.2,248.3,170.2,245.1z"/>
			<g>
				<path fill="#C2E6E4" d="M121,125.9c2.2-1.2,5.1-0.8,8,0.8c2.9,1.7,13.5,8.1,14.3,12.5c2.6,14.2,1.2,61.5,4.5,64.4
					c20,17.7,38.9,36.2,38.9,36.2s-8.4-2.6-12,3.8c-3.6,6.4,1.3,13.6,1.3,13.6s-40.7-23.7-50.6-34.3c-13.2-14-10.8-62.3-10.9-79.3
					C114.3,126,121,125.9,121,125.9z"/>
			</g>
		</g>
		<path fill="#6EC4BB" d="M221.5,224.5c0,0,0-1.7,2.9-6.5l-2.9-6.1l-5,4.4L221.5,224.5z"/>
		<path fill="#C2E6E4" d="M235.9,214.7c0,0-5.4-30.3-10.5-45.8c-2.2,0.5-4.5,2.1-5.8,6.1c-3.4,10.2-1.5,30.4,2,42.1
			c0.3,1,1,1.8,1.8,2.5c0.6-1.2,1.3-2.2,2.2-2.8C233.4,211.2,235.9,214.7,235.9,214.7z"/>
		<g>
			<g>
				<g>
					<path fill="#99846B" d="M134.8,28.4c2.6-19.4,21-28,30.8-28.4c13.3-0.5,67.6,10.8,50.7,35.4c-5.5,8-31.6,9.9-49.3,8.7
						c0,0,7.8,23.5-7.4,23.1c-0.5,0,2.7,10.2,2.8,10.4l-6.5-3.6l-1-5.1c-0.1-0.7-5.3-7.2-8-7.9c-7.1-2-4.2,9.8-4.2,9.8
						c-0.2-0.5-1.5-2.2-1.7-2.7c-3.5-9.8-4.3-17.3-4.3-22.3C134.7,40.7,133.9,34.9,134.8,28.4z"/>
				</g>
			</g>
		</g>
	</g>
	<g>
		<polygon fill="#CECECE" points="113.8,252.2 113.7,264.4 83,246.6 83,234.4 		"/>
	</g>
	<g>
		<polygon fill="#EDEDED" points="83,234.4 96,226.9 126.7,244.7 113.8,252.2 		"/>
	</g>
	<g>
		<polygon fill="#7A5D54" points="194.9,296.2 194.9,314.1 113.7,267.2 113.7,264.4 113.8,252.2 113.8,249.3 		"/>
	</g>
	<g>
		<polygon fill="#896D63" points="194.9,296.2 207.9,288.7 207.8,306.6 194.9,314.1 		"/>
	</g>
	<g>
		<polygon fill="#896D63" points="113.8,249.3 126.7,241.8 207.9,288.7 194.9,296.2 		"/>
	</g>
	<g>
		<g enable-background="new    ">
			<g>
				<path fill="#D93E1F" d="M107,227.8l-6.9,4c0,2.7-0.9,4.5-2.5,5.4c2.9-1.7,6.2-3.6,9.6-5.6C107.1,230.4,107,229.1,107,227.8z"/>
			</g>
			<g>
				<path fill="#D93E1F" d="M107,227.7v-69.3l-6.7,3.9l-0.2,69.6l6.9-4C107,227.8,107,227.7,107,227.7z"/>
			</g>
			<g>
				<path fill="#D93E1F" d="M107,134.8c-7.9,4.6-15.2,8.8-21.1,12.3c1.5-0.9,3.7-0.8,6,0.6l15.1-8.8V134.8z"/>
			</g>
			<g>
				<path fill="#D93E1F" d="M107,138.9l-15.1,8.8c4.7,2.7,8.4,9.2,8.4,14.6l6.7-3.9V138.9z"/>
			</g>
			<g>
				<path fill="#C41C00" d="M91.9,147.7c4.7,2.7,8.4,9.2,8.4,14.6l-0.2,69.6c0,5.4-3.8,7.5-8.5,4.8c-4.7-2.7-8.4-9.2-8.4-14.6
					l0.2-69.6C83.4,147.2,87.2,145,91.9,147.7z"/>
			</g>
		</g>
	</g>
	<g>
		<path fill="#896D63" d="M318.1,223.5c-0.9,0.5-1.8,1.2-2.7,2c-4.3,3.8-7.4,10.2-7.4,15.5c0,6.4,4.6,9,10.2,5.8
			c5.6-3.2,10.1-11.1,10.1-17.5c0-5.3-3.2-8-7.5-6.9C320,222.6,319,223,318.1,223.5z"/>
	</g>
	<g>
		<path fill="#896D63" d="M201.4,289.7c-0.9,0.5-1.8,1.2-2.7,2c-4.3,3.8-7.4,10.2-7.4,15.5c0,6.4,4.6,9,10.2,5.8
			c5.6-3.2,10.1-11.1,10.1-17.5c0-5.3-3.2-8-7.5-6.9C203.2,288.8,202.3,289.2,201.4,289.7z"/>
	</g>
</g>
</svg>
